<svg id="visual" viewBox="0 0 960 200" width="960" height="200" xmlns="http://www.w3.org/2000/svg" xmlns:xlink="http://www.w3.org/1999/xlink" version="1.1"><rect x="0" y="0" width="960" height="200" fill="#F9F8FF"></rect><path d="M0 69L17.8 67.5C35.7 66 71.3 63 106.8 63C142.3 63 177.7 66 213.2 67C248.7 68 284.3 67 320 77C355.7 87 391.3 108 426.8 117.8C462.3 127.7 497.7 126.3 533.2 109.8C568.7 93.3 604.3 61.7 640 68.2C675.7 74.7 711.3 119.3 746.8 126.5C782.3 133.7 817.7 103.3 853.2 85.7C888.7 68 924.3 63 942.2 60.5L960 58L960 0L942.2 0C924.3 0 888.7 0 853.2 0C817.7 0 782.3 0 746.8 0C711.3 0 675.7 0 640 0C604.3 0 568.7 0 533.2 0C497.7 0 462.3 0 426.8 0C391.3 0 355.7 0 320 0C284.3 0 248.7 0 213.2 0C177.7 0 142.3 0 106.8 0C71.3 0 35.7 0 17.8 0L0 0Z" fill="#777777" stroke-linecap="round" stroke-linejoin="miter"></path></svg>