<svg id="visual" viewBox="0 0 960 200" width="960" height="200" xmlns="http://www.w3.org/2000/svg" xmlns:xlink="http://www.w3.org/1999/xlink" version="1.1"><rect x="0" y="0" width="960" height="200" fill="#F9F8FF"></rect><path d="M0 140L22.8 139.7C45.7 139.3 91.3 138.7 137 126.8C182.7 115 228.3 92 274 88.5C319.7 85 365.3 101 411.2 110.8C457 120.7 503 124.3 548.8 119C594.7 113.7 640.3 99.3 686 86.8C731.7 74.3 777.3 63.7 823 73.7C868.7 83.7 914.3 114.3 937.2 129.7L960 145L960 201L937.2 201C914.3 201 868.7 201 823 201C777.3 201 731.7 201 686 201C640.3 201 594.7 201 548.8 201C503 201 457 201 411.2 201C365.3 201 319.7 201 274 201C228.3 201 182.7 201 137 201C91.3 201 45.7 201 22.8 201L0 201Z" fill="#6B81FF" stroke-linecap="round" stroke-linejoin="miter"></path></svg>