<svg width="759" height="608" viewBox="0 0 759 608" fill="none" xmlns="http://www.w3.org/2000/svg">
<path d="M625.662 202.322C628.237 202.322 630.324 200.236 630.324 197.661C630.324 195.087 628.237 193 625.662 193C623.087 193 621 195.087 621 197.661C621 200.236 623.087 202.322 625.662 202.322Z" fill="#66ADFF"/>
<path d="M462.905 435.808C464.509 435.808 465.809 434.508 465.809 432.904C465.809 431.301 464.509 430 462.905 430C461.301 430 460 431.301 460 432.904C460 434.508 461.301 435.808 462.905 435.808Z" fill="#88EAEC"/>
<path d="M366.324 143.647C367.607 143.647 368.647 142.606 368.647 141.324C368.647 140.041 367.607 139 366.324 139C365.041 139 364 140.041 364 141.324C364 142.606 365.041 143.647 366.324 143.647Z" fill="#0077FF"/>
<path d="M405.822 61L408.131 65.736L412.971 67.821L408.235 70.129L406.15 74.968L403.841 70.218L399 68.133L403.737 65.84L405.822 61Z" fill="#66ADFF"/>
<path d="M483.953 532.318L448.009 544.272C440.791 546.673 436.897 554.492 439.312 561.736L451.338 597.81C453.753 605.05 461.563 608.98 468.781 606.58L504.725 594.62C511.943 592.22 515.837 584.402 513.422 577.158L501.396 541.088C498.981 533.844 491.171 529.917 483.953 532.318Z" fill="#D1D8FA"/>
<path d="M474.54 46.087L593.883 499.215" stroke="#7570FA" stroke-width="2" stroke-miterlimit="10"/>
<path d="M185.636 348.04L593.846 499.759" stroke="#7570FA" stroke-width="2" stroke-miterlimit="10"/>
<path d="M185.626 348.756L474.283 46.022" stroke="#7570FA" stroke-width="2" stroke-miterlimit="10"/>
<path d="M300.931 38.473L470.733 550.836" stroke="#D1D8FA" stroke-width="3" stroke-linecap="round" stroke-linejoin="round"/>
<path d="M112.419 305.285C149.037 293.106 168.804 253.441 156.569 216.69C144.335 179.939 104.732 160.019 68.1139 172.198C31.4959 184.377 11.7299 224.043 23.9639 260.794C36.1979 297.545 75.8009 317.464 112.419 305.285Z" stroke="#0077FF" stroke-width="2" stroke-miterlimit="10"/>
<path d="M90.481 237.933L690.322 371.746" stroke="#B9B7F1" stroke-width="3" stroke-linecap="round" stroke-linejoin="round"/>
<path d="M709.878 436.075C746.496 423.896 766.263 384.23 754.028 347.48C741.794 310.729 702.191 290.809 665.573 302.988C628.955 315.167 609.189 354.832 621.423 391.583C633.657 428.334 673.26 448.254 709.878 436.075Z" stroke="#8297FF" stroke-width="2" stroke-miterlimit="10"/>
<path d="M578.209 97.921L199.784 510.353" stroke="white" stroke-width="3" stroke-linecap="round" stroke-linejoin="round"/>
<path d="M585.653 61.6489L549.704 73.605C542.484 76.006 538.587 83.8269 540.999 91.0729L553.01 127.152C555.422 134.397 563.23 138.325 570.45 135.924L606.398 123.967C613.618 121.566 617.515 113.746 615.103 106.5L603.092 70.4209C600.68 63.1749 592.872 59.2479 585.653 61.6489Z" fill="white"/>
<path d="M206.711 472.628L171.372 484.381C164.275 486.742 160.477 494.529 162.889 501.775L174.9 537.853C177.312 545.098 185.021 549.059 192.118 546.698L227.457 534.945C234.554 532.584 238.352 524.797 235.94 517.552L223.929 481.473C221.517 474.228 213.808 470.267 206.711 472.628Z" fill="white"/>
<path d="M309.227 1.68897L273.278 13.645C266.059 16.047 262.161 23.867 264.574 31.113L276.584 67.192C278.996 74.438 286.805 78.365 294.024 75.964L329.973 64.007C337.192 61.606 341.089 53.786 338.677 46.54L326.667 10.461C324.254 3.21497 316.446 -0.712033 309.227 1.68897Z" fill="white"/>
<path d="M97.1649 201.253L61.2169 213.21C53.9969 215.611 50.0999 223.431 52.5119 230.677L64.5229 266.756C66.9349 274.002 74.7429 277.929 81.9629 275.528L117.911 263.572C125.131 261.171 129.028 253.35 126.616 246.104L114.605 210.025C112.193 202.779 104.385 198.852 97.1649 201.253Z" fill="#A780FF"/>
<path d="M695.198 333.022L659.859 344.776C652.762 347.136 648.964 354.924 651.376 362.169L663.387 398.247C665.799 405.493 673.507 409.453 680.605 407.093L715.944 395.339C723.041 392.979 726.839 385.192 724.427 377.946L712.416 341.868C710.004 334.622 702.295 330.662 695.198 333.022Z" fill="#5550D9"/>
<path d="M107.673 292.787C137.606 282.831 153.765 250.406 143.764 220.364C133.763 190.322 101.389 174.038 71.4548 183.994C41.5218 193.95 25.3628 226.375 35.3638 256.417C45.3648 286.459 77.7388 302.743 107.673 292.787Z" stroke="#7570FA" stroke-width="2" stroke-miterlimit="10"/>
<path d="M706.01 424.455C736.235 414.403 752.629 381.899 742.628 351.856C732.626 321.813 700.017 305.608 669.793 315.661C639.568 325.713 623.174 358.217 633.175 388.26C643.177 418.303 675.786 434.508 706.01 424.455Z" stroke="#5550D9" stroke-width="2" stroke-miterlimit="10"/>
<path d="M161.917 405.662C157.344 405.686 155.362 404.69 152.641 400.998C152.563 400.896 152.455 400.82 152.332 400.782C152.209 400.744 152.077 400.745 151.955 400.786C151.834 400.826 151.727 400.904 151.652 401.008C151.576 401.112 151.535 401.237 151.534 401.366C151.569 405.952 150.579 407.936 146.918 410.651C146.816 410.729 146.741 410.837 146.703 410.96C146.666 411.083 146.667 411.215 146.708 411.337C146.749 411.459 146.826 411.566 146.93 411.642C147.034 411.718 147.159 411.759 147.288 411.761C151.846 411.742 153.828 412.738 156.544 416.414C156.622 416.516 156.73 416.592 156.853 416.63C156.975 416.668 157.107 416.667 157.229 416.626C157.351 416.586 157.457 416.508 157.532 416.404C157.608 416.3 157.649 416.175 157.65 416.046C157.621 411.477 158.611 409.492 162.287 406.772C162.389 406.694 162.464 406.586 162.502 406.463C162.54 406.34 162.538 406.208 162.497 406.086C162.457 405.963 162.379 405.857 162.275 405.781C162.171 405.705 162.046 405.663 161.917 405.662Z" fill="white"/>
<path d="M17.8091 286.246C12.6211 286.268 10.3661 285.098 7.30806 280.969C7.22006 280.85 7.09606 280.761 6.95406 280.716C6.81206 280.67 6.66006 280.671 6.51906 280.718C6.37706 280.765 6.25507 280.856 6.16807 280.977C6.08207 281.098 6.03607 281.243 6.03707 281.392C6.07907 286.578 4.89507 288.838 0.792074 291.905C0.679074 291.995 0.597066 292.118 0.556066 292.256C0.515066 292.394 0.51707 292.542 0.56307 292.679C0.60807 292.816 0.695071 292.936 0.811071 293.022C0.927071 293.108 1.06607 293.157 1.21007 293.161C6.39307 293.122 8.65306 294.309 11.7061 298.421C11.7941 298.541 11.9181 298.63 12.0601 298.675C12.2021 298.72 12.3541 298.719 12.4951 298.672C12.6371 298.625 12.7591 298.535 12.8461 298.414C12.9321 298.292 12.9781 298.147 12.9771 297.998C12.9401 292.829 14.1191 290.553 18.2271 287.502C18.3401 287.412 18.4231 287.289 18.4641 287.151C18.5051 287.012 18.5021 286.865 18.4571 286.728C18.4111 286.591 18.3241 286.471 18.2091 286.385C18.0931 286.299 17.9531 286.25 17.8091 286.246Z" fill="#A780FF"/>
<path d="M415.198 471.569C411.938 471.585 410.525 470.869 408.615 468.259C408.559 468.185 408.482 468.13 408.394 468.103C408.306 468.075 408.212 468.075 408.125 468.105C408.037 468.134 407.961 468.19 407.907 468.264C407.854 468.339 407.825 468.429 407.825 468.522C407.846 471.783 407.144 473.203 404.539 475.114C404.465 475.17 404.41 475.247 404.383 475.335C404.355 475.423 404.356 475.518 404.385 475.605C404.415 475.693 404.471 475.769 404.545 475.823C404.62 475.878 404.71 475.907 404.802 475.907C408.062 475.891 409.473 476.6 411.385 479.217C411.441 479.291 411.518 479.346 411.606 479.373C411.694 479.401 411.788 479.4 411.875 479.371C411.963 479.342 412.039 479.286 412.093 479.211C412.146 479.137 412.175 479.047 412.175 478.954C412.152 475.686 412.856 474.273 415.461 472.361C415.535 472.306 415.59 472.229 415.617 472.141C415.645 472.053 415.644 471.958 415.615 471.871C415.585 471.783 415.529 471.707 415.455 471.652C415.38 471.598 415.29 471.569 415.198 471.569Z" fill="#526FFF"/>
<path d="M664.375 485.057C662.805 485.262 661.226 485.034 659.833 484.399C658.44 483.765 657.293 482.752 656.534 481.486C656.473 481.398 656.382 481.333 656.276 481.301C656.169 481.268 656.052 481.27 655.943 481.306C655.834 481.342 655.74 481.411 655.674 481.501C655.608 481.591 655.574 481.697 655.578 481.804C655.726 483.275 655.412 484.774 654.674 486.117C653.936 487.46 652.806 488.589 651.423 489.365C651.327 489.427 651.253 489.515 651.214 489.617C651.174 489.719 651.171 489.829 651.205 489.93C651.238 490.031 651.307 490.117 651.399 490.175C651.492 490.233 651.604 490.259 651.718 490.251C653.288 490.041 654.868 490.266 656.263 490.896C657.658 491.527 658.808 492.536 659.571 493.8C659.632 493.888 659.723 493.953 659.83 493.986C659.936 494.018 660.053 494.016 660.162 493.98C660.271 493.944 660.365 493.875 660.431 493.785C660.497 493.695 660.531 493.589 660.527 493.482C660.378 492.016 660.69 490.52 661.426 489.181C662.163 487.841 663.29 486.715 664.67 485.942C664.766 485.881 664.84 485.793 664.88 485.691C664.919 485.589 664.922 485.479 664.889 485.378C664.855 485.277 664.787 485.191 664.694 485.133C664.601 485.075 664.489 485.049 664.375 485.057Z" fill="#CDF4EE"/>
<path d="M162.56 159.613C154.326 159.578 150.713 157.677 145.749 150.771C145.606 150.576 145.408 150.431 145.183 150.356C144.958 150.282 144.718 150.281 144.497 150.355C144.276 150.428 144.084 150.572 143.949 150.767C143.814 150.961 143.742 151.196 143.744 151.438C143.91 159.94 142.156 163.625 135.585 168.584C135.4 168.727 135.264 168.928 135.197 169.158C135.13 169.388 135.135 169.636 135.212 169.866C135.289 170.097 135.433 170.298 135.625 170.443C135.816 170.587 136.045 170.666 136.28 170.67C144.519 170.721 148.127 172.605 153.091 179.512C153.234 179.707 153.432 179.852 153.656 179.926C153.881 180.001 154.121 180.002 154.342 179.928C154.564 179.854 154.756 179.71 154.891 179.516C155.026 179.322 155.097 179.087 155.095 178.845C154.929 170.343 156.688 166.674 163.254 161.699C163.44 161.555 163.576 161.355 163.642 161.124C163.709 160.894 163.704 160.647 163.627 160.416C163.551 160.186 163.406 159.984 163.215 159.84C163.023 159.696 162.794 159.616 162.56 159.613Z" fill="white"/>
<path d="M188.538 325.332L168.016 332.158C162.349 334.043 159.25 340.063 161.095 345.605L167.776 365.675C169.621 371.217 175.711 374.182 181.378 372.297L201.9 365.471C207.567 363.586 210.666 357.565 208.821 352.023L202.14 331.954C200.295 326.412 194.205 323.447 188.538 325.332Z" fill="#7570FA"/>
<path d="M478.18 21.428L457.658 28.254C451.991 30.139 448.932 36.277 450.825 41.965L457.682 62.562C459.575 68.25 465.704 71.332 471.371 69.447L491.893 62.622C497.56 60.737 500.62 54.598 498.726 48.911L491.87 28.314C489.976 22.626 483.847 19.544 478.18 21.428Z" fill="#7570FA"/>
<path d="M597.754 474.45L577.231 481.276C571.564 483.161 568.505 489.299 570.399 494.987L577.255 515.584C579.149 521.271 585.278 524.354 590.945 522.469L611.467 515.644C617.134 513.759 620.193 507.62 618.3 501.932L611.443 481.336C609.55 475.648 603.421 472.565 597.754 474.45Z" fill="#7570FA"/>
</svg>
