<svg width="1363" height="167" viewBox="0 0 1363 167" fill="none" xmlns="http://www.w3.org/2000/svg">
<rect width="1363" height="167" rx="15" fill="#F0F0F0"/>
<path d="M0 15C0 6.71573 6.71573 0 15 0H37V167H15C6.71573 167 0 160.284 0 152V15Z" fill="#424241"/>
<path d="M99.6758 54.4375L103.695 40.9375H107.609L101.668 58H99.0898L99.6758 54.4375ZM95.9727 40.9375L99.9805 54.4375L100.59 58H97.9883L92.082 40.9375H95.9727ZM107.914 51.7891V51.543C107.914 50.6133 108.047 49.7578 108.312 48.9766C108.578 48.1875 108.965 47.5039 109.473 46.9258C109.98 46.3477 110.605 45.8984 111.348 45.5781C112.09 45.25 112.941 45.0859 113.902 45.0859C114.863 45.0859 115.719 45.25 116.469 45.5781C117.219 45.8984 117.848 46.3477 118.355 46.9258C118.871 47.5039 119.262 48.1875 119.527 48.9766C119.793 49.7578 119.926 50.6133 119.926 51.543V51.7891C119.926 52.7109 119.793 53.5664 119.527 54.3555C119.262 55.1367 118.871 55.8203 118.355 56.4062C117.848 56.9844 117.223 57.4336 116.48 57.7539C115.738 58.0742 114.887 58.2344 113.926 58.2344C112.965 58.2344 112.109 58.0742 111.359 57.7539C110.617 57.4336 109.988 56.9844 109.473 56.4062C108.965 55.8203 108.578 55.1367 108.312 54.3555C108.047 53.5664 107.914 52.7109 107.914 51.7891ZM111.289 51.543V51.7891C111.289 52.3203 111.336 52.8164 111.43 53.2773C111.523 53.7383 111.672 54.1445 111.875 54.4961C112.086 54.8398 112.359 55.1094 112.695 55.3047C113.031 55.5 113.441 55.5977 113.926 55.5977C114.395 55.5977 114.797 55.5 115.133 55.3047C115.469 55.1094 115.738 54.8398 115.941 54.4961C116.145 54.1445 116.293 53.7383 116.387 53.2773C116.488 52.8164 116.539 52.3203 116.539 51.7891V51.543C116.539 51.0273 116.488 50.543 116.387 50.0898C116.293 49.6289 116.141 49.2227 115.93 48.8711C115.727 48.5117 115.457 48.2305 115.121 48.0273C114.785 47.8242 114.379 47.7227 113.902 47.7227C113.426 47.7227 113.02 47.8242 112.684 48.0273C112.355 48.2305 112.086 48.5117 111.875 48.8711C111.672 49.2227 111.523 49.6289 111.43 50.0898C111.336 50.543 111.289 51.0273 111.289 51.543ZM128.211 45.3203V47.7109H120.828V45.3203H128.211ZM122.656 42.1914H126.031V54.1797C126.031 54.5469 126.078 54.8281 126.172 55.0234C126.273 55.2188 126.422 55.3555 126.617 55.4336C126.812 55.5039 127.059 55.5391 127.355 55.5391C127.566 55.5391 127.754 55.5312 127.918 55.5156C128.09 55.4922 128.234 55.4688 128.352 55.4453L128.363 57.9297C128.074 58.0234 127.762 58.0977 127.426 58.1523C127.09 58.207 126.719 58.2344 126.312 58.2344C125.57 58.2344 124.922 58.1133 124.367 57.8711C123.82 57.6211 123.398 57.2227 123.102 56.6758C122.805 56.1289 122.656 55.4102 122.656 54.5195V42.1914ZM135.969 58.2344C134.984 58.2344 134.102 58.0781 133.32 57.7656C132.539 57.4453 131.875 57.0039 131.328 56.4414C130.789 55.8789 130.375 55.2266 130.086 54.4844C129.797 53.7344 129.652 52.9375 129.652 52.0938V51.625C129.652 50.6641 129.789 49.7852 130.062 48.9883C130.336 48.1914 130.727 47.5 131.234 46.9141C131.75 46.3281 132.375 45.8789 133.109 45.5664C133.844 45.2461 134.672 45.0859 135.594 45.0859C136.492 45.0859 137.289 45.2344 137.984 45.5312C138.68 45.8281 139.262 46.25 139.73 46.7969C140.207 47.3438 140.566 48 140.809 48.7656C141.051 49.5234 141.172 50.3672 141.172 51.2969V52.7031H131.094V50.4531H137.855V50.1953C137.855 49.7266 137.77 49.3086 137.598 48.9414C137.434 48.5664 137.184 48.2695 136.848 48.0508C136.512 47.832 136.082 47.7227 135.559 47.7227C135.113 47.7227 134.73 47.8203 134.41 48.0156C134.09 48.2109 133.828 48.4844 133.625 48.8359C133.43 49.1875 133.281 49.6016 133.18 50.0781C133.086 50.5469 133.039 51.0625 133.039 51.625V52.0938C133.039 52.6016 133.109 53.0703 133.25 53.5C133.398 53.9297 133.605 54.3008 133.871 54.6133C134.145 54.9258 134.473 55.168 134.855 55.3398C135.246 55.5117 135.688 55.5977 136.18 55.5977C136.789 55.5977 137.355 55.4805 137.879 55.2461C138.41 55.0039 138.867 54.6406 139.25 54.1562L140.891 55.9375C140.625 56.3203 140.262 56.6875 139.801 57.0391C139.348 57.3906 138.801 57.6797 138.16 57.9062C137.52 58.125 136.789 58.2344 135.969 58.2344ZM159.172 52.3398H162.676C162.605 53.4883 162.289 54.5078 161.727 55.3984C161.172 56.2891 160.395 56.9844 159.395 57.4844C158.402 57.9844 157.207 58.2344 155.809 58.2344C154.715 58.2344 153.734 58.0469 152.867 57.6719C152 57.2891 151.258 56.7422 150.641 56.0312C150.031 55.3203 149.566 54.4609 149.246 53.4531C148.926 52.4453 148.766 51.3164 148.766 50.0664V48.8828C148.766 47.6328 148.93 46.5039 149.258 45.4961C149.594 44.4805 150.07 43.6172 150.688 42.9062C151.312 42.1953 152.059 41.6484 152.926 41.2656C153.793 40.8828 154.762 40.6914 155.832 40.6914C157.254 40.6914 158.453 40.9492 159.43 41.4648C160.414 41.9805 161.176 42.6914 161.715 43.5977C162.262 44.5039 162.59 45.5352 162.699 46.6914H159.184C159.145 46.0039 159.008 45.4219 158.773 44.9453C158.539 44.4609 158.184 44.0977 157.707 43.8555C157.238 43.6055 156.613 43.4805 155.832 43.4805C155.246 43.4805 154.734 43.5898 154.297 43.8086C153.859 44.0273 153.492 44.3594 153.195 44.8047C152.898 45.25 152.676 45.8125 152.527 46.4922C152.387 47.1641 152.316 47.9531 152.316 48.8594V50.0664C152.316 50.9492 152.383 51.7266 152.516 52.3984C152.648 53.0625 152.852 53.625 153.125 54.0859C153.406 54.5391 153.766 54.8828 154.203 55.1172C154.648 55.3438 155.184 55.457 155.809 55.457C156.543 55.457 157.148 55.3398 157.625 55.1055C158.102 54.8711 158.465 54.5234 158.715 54.0625C158.973 53.6016 159.125 53.0273 159.172 52.3398ZM168.066 40V58H164.691V40H168.066ZM167.586 51.2148H166.66C166.668 50.332 166.785 49.5195 167.012 48.7773C167.238 48.0273 167.562 47.3789 167.984 46.832C168.406 46.2773 168.91 45.8477 169.496 45.543C170.09 45.2383 170.746 45.0859 171.465 45.0859C172.09 45.0859 172.656 45.1758 173.164 45.3555C173.68 45.5273 174.121 45.8086 174.488 46.1992C174.863 46.582 175.152 47.0859 175.355 47.7109C175.559 48.3359 175.66 49.0938 175.66 49.9844V58H172.262V49.9609C172.262 49.3984 172.18 48.957 172.016 48.6367C171.859 48.3086 171.629 48.0781 171.324 47.9453C171.027 47.8047 170.66 47.7344 170.223 47.7344C169.738 47.7344 169.324 47.8242 168.98 48.0039C168.645 48.1836 168.375 48.4336 168.172 48.7539C167.969 49.0664 167.82 49.4336 167.727 49.8555C167.633 50.2773 167.586 50.7305 167.586 51.2148ZM185.07 55.1406V49.4922C185.07 49.0859 185.004 48.7383 184.871 48.4492C184.738 48.1523 184.531 47.9219 184.25 47.7578C183.977 47.5938 183.621 47.5117 183.184 47.5117C182.809 47.5117 182.484 47.5781 182.211 47.7109C181.938 47.8359 181.727 48.0195 181.578 48.2617C181.43 48.4961 181.355 48.7734 181.355 49.0938H177.98C177.98 48.5547 178.105 48.043 178.355 47.5586C178.605 47.0742 178.969 46.6484 179.445 46.2812C179.922 45.9062 180.488 45.6133 181.145 45.4023C181.809 45.1914 182.551 45.0859 183.371 45.0859C184.355 45.0859 185.23 45.25 185.996 45.5781C186.762 45.9062 187.363 46.3984 187.801 47.0547C188.246 47.7109 188.469 48.5312 188.469 49.5156V54.9414C188.469 55.6367 188.512 56.207 188.598 56.6523C188.684 57.0898 188.809 57.4727 188.973 57.8008V58H185.562C185.398 57.6562 185.273 57.2266 185.188 56.7109C185.109 56.1875 185.07 55.6641 185.07 55.1406ZM185.516 50.2773L185.539 52.1875H183.652C183.207 52.1875 182.82 52.2383 182.492 52.3398C182.164 52.4414 181.895 52.5859 181.684 52.7734C181.473 52.9531 181.316 53.1641 181.215 53.4062C181.121 53.6484 181.074 53.9141 181.074 54.2031C181.074 54.4922 181.141 54.7539 181.273 54.9883C181.406 55.2148 181.598 55.3945 181.848 55.5273C182.098 55.6523 182.391 55.7148 182.727 55.7148C183.234 55.7148 183.676 55.6133 184.051 55.4102C184.426 55.207 184.715 54.957 184.918 54.6602C185.129 54.3633 185.238 54.082 185.246 53.8164L186.137 55.2461C186.012 55.5664 185.84 55.8984 185.621 56.2422C185.41 56.5859 185.141 56.9102 184.812 57.2148C184.484 57.5117 184.09 57.7578 183.629 57.9531C183.168 58.1406 182.621 58.2344 181.988 58.2344C181.184 58.2344 180.453 58.0742 179.797 57.7539C179.148 57.4258 178.633 56.9766 178.25 56.4062C177.875 55.8281 177.688 55.1719 177.688 54.4375C177.688 53.7734 177.812 53.1836 178.062 52.668C178.312 52.1523 178.68 51.7188 179.164 51.3672C179.656 51.0078 180.27 50.7383 181.004 50.5586C181.738 50.3711 182.59 50.2773 183.559 50.2773H185.516ZM194.633 45.3203V58H191.246V45.3203H194.633ZM191.035 42.0156C191.035 41.5234 191.207 41.1172 191.551 40.7969C191.895 40.4766 192.355 40.3164 192.934 40.3164C193.504 40.3164 193.961 40.4766 194.305 40.7969C194.656 41.1172 194.832 41.5234 194.832 42.0156C194.832 42.5078 194.656 42.9141 194.305 43.2344C193.961 43.5547 193.504 43.7148 192.934 43.7148C192.355 43.7148 191.895 43.5547 191.551 43.2344C191.207 42.9141 191.035 42.5078 191.035 42.0156ZM200.727 48.0273V58H197.352V45.3203H200.516L200.727 48.0273ZM200.234 51.2148H199.32C199.32 50.2773 199.441 49.4336 199.684 48.6836C199.926 47.9258 200.266 47.2812 200.703 46.75C201.141 46.2109 201.66 45.8008 202.262 45.5195C202.871 45.2305 203.551 45.0859 204.301 45.0859C204.895 45.0859 205.438 45.1719 205.93 45.3438C206.422 45.5156 206.844 45.7891 207.195 46.1641C207.555 46.5391 207.828 47.0352 208.016 47.6523C208.211 48.2695 208.309 49.0234 208.309 49.9141V58H204.91V49.9023C204.91 49.3398 204.832 48.9023 204.676 48.5898C204.52 48.2773 204.289 48.0586 203.984 47.9336C203.688 47.8008 203.32 47.7344 202.883 47.7344C202.43 47.7344 202.035 47.8242 201.699 48.0039C201.371 48.1836 201.098 48.4336 200.879 48.7539C200.668 49.0664 200.508 49.4336 200.398 49.8555C200.289 50.2773 200.234 50.7305 200.234 51.2148Z" fill="#888888"/>
<path d="M115.994 98.708V104.641H99.5806V98.708H115.994ZM102.151 86.0078V118H94.439V86.0078H102.151ZM121.18 86.0078V118H113.489V86.0078H121.18ZM124.805 106.354V105.893C124.805 104.15 125.054 102.546 125.552 101.081C126.05 99.6016 126.783 98.3198 127.75 97.2358C128.716 96.1519 129.91 95.3096 131.331 94.709C132.752 94.0938 134.393 93.7861 136.253 93.7861C138.128 93.7861 139.776 94.0938 141.197 94.709C142.632 95.3096 143.833 96.1519 144.8 97.2358C145.767 98.3198 146.5 99.6016 146.998 101.081C147.496 102.546 147.745 104.15 147.745 105.893V106.354C147.745 108.083 147.496 109.687 146.998 111.167C146.5 112.631 145.767 113.913 144.8 115.012C143.833 116.096 142.64 116.938 141.219 117.539C139.798 118.139 138.157 118.439 136.297 118.439C134.437 118.439 132.789 118.139 131.353 117.539C129.917 116.938 128.716 116.096 127.75 115.012C126.783 113.913 126.05 112.631 125.552 111.167C125.054 109.687 124.805 108.083 124.805 106.354ZM132.21 105.893V106.354C132.21 107.248 132.276 108.083 132.408 108.859C132.54 109.636 132.759 110.317 133.067 110.903C133.375 111.474 133.792 111.921 134.319 112.243C134.847 112.565 135.506 112.727 136.297 112.727C137.073 112.727 137.718 112.565 138.23 112.243C138.758 111.921 139.175 111.474 139.483 110.903C139.791 110.317 140.01 109.636 140.142 108.859C140.274 108.083 140.34 107.248 140.34 106.354V105.893C140.34 105.029 140.274 104.216 140.142 103.454C140.01 102.678 139.791 101.997 139.483 101.411C139.175 100.81 138.758 100.341 138.23 100.004C137.703 99.6675 137.044 99.499 136.253 99.499C135.477 99.499 134.825 99.6675 134.297 100.004C133.785 100.341 133.375 100.81 133.067 101.411C132.759 101.997 132.54 102.678 132.408 103.454C132.276 104.216 132.21 105.029 132.21 105.893ZM158.27 110.925L162.664 94.2256H167.3L165.652 102.597L161.302 118H157.588L158.27 110.925ZM156.534 94.2256L159.258 110.793L159.566 118H155.062L149.437 94.2256H156.534ZM171.211 110.441L173.958 94.2256H181.055L175.474 118H170.97L171.211 110.441ZM167.828 94.2256L172.266 110.881L172.947 118H169.19L164.927 102.641L163.345 94.2256H167.828ZM209.466 86.0078V118H201.753V86.0078H209.466ZM219.09 86.0078V91.9624H192.349V86.0078H219.09ZM216.475 106.354V105.893C216.475 104.15 216.724 102.546 217.222 101.081C217.72 99.6016 218.453 98.3198 219.419 97.2358C220.386 96.1519 221.58 95.3096 223.001 94.709C224.422 94.0938 226.062 93.7861 227.923 93.7861C229.798 93.7861 231.446 94.0938 232.867 94.709C234.302 95.3096 235.503 96.1519 236.47 97.2358C237.437 98.3198 238.169 99.6016 238.667 101.081C239.166 102.546 239.415 104.15 239.415 105.893V106.354C239.415 108.083 239.166 109.687 238.667 111.167C238.169 112.631 237.437 113.913 236.47 115.012C235.503 116.096 234.31 116.938 232.889 117.539C231.468 118.139 229.827 118.439 227.967 118.439C226.106 118.439 224.458 118.139 223.023 117.539C221.587 116.938 220.386 116.096 219.419 115.012C218.453 113.913 217.72 112.631 217.222 111.167C216.724 109.687 216.475 108.083 216.475 106.354ZM223.88 105.893V106.354C223.88 107.248 223.946 108.083 224.078 108.859C224.209 109.636 224.429 110.317 224.737 110.903C225.044 111.474 225.462 111.921 225.989 112.243C226.517 112.565 227.176 112.727 227.967 112.727C228.743 112.727 229.388 112.565 229.9 112.243C230.428 111.921 230.845 111.474 231.153 110.903C231.46 110.317 231.68 109.636 231.812 108.859C231.944 108.083 232.01 107.248 232.01 106.354V105.893C232.01 105.029 231.944 104.216 231.812 103.454C231.68 102.678 231.46 101.997 231.153 101.411C230.845 100.81 230.428 100.341 229.9 100.004C229.373 99.6675 228.714 99.499 227.923 99.499C227.146 99.499 226.495 99.6675 225.967 100.004C225.455 100.341 225.044 100.81 224.737 101.411C224.429 101.997 224.209 102.678 224.078 103.454C223.946 104.216 223.88 105.029 223.88 105.893ZM254.268 86.0078H266.858C269.319 86.0078 271.458 86.374 273.274 87.1064C275.091 87.8389 276.49 88.9229 277.471 90.3584C278.467 91.7939 278.965 93.5664 278.965 95.6758C278.965 97.5068 278.68 99.0376 278.108 100.268C277.537 101.499 276.739 102.517 275.713 103.322C274.703 104.113 273.523 104.765 272.176 105.278L269.649 106.706H259.08L259.036 100.751H266.858C267.84 100.751 268.653 100.576 269.297 100.224C269.942 99.8726 270.425 99.3745 270.748 98.73C271.084 98.0708 271.253 97.2871 271.253 96.3789C271.253 95.4561 271.084 94.665 270.748 94.0059C270.411 93.3467 269.913 92.8413 269.253 92.4897C268.609 92.1382 267.811 91.9624 266.858 91.9624H261.98V118H254.268V86.0078ZM271.78 118L264.705 103.85L272.879 103.806L280.042 117.67V118H271.78ZM297.159 112.221V94.2256H304.585V118H297.642L297.159 112.221ZM297.862 107.387L299.795 107.343C299.795 108.94 299.605 110.419 299.224 111.782C298.843 113.129 298.279 114.301 297.532 115.297C296.8 116.293 295.892 117.07 294.808 117.626C293.738 118.168 292.5 118.439 291.094 118.439C289.922 118.439 288.846 118.278 287.864 117.956C286.897 117.619 286.062 117.099 285.359 116.396C284.656 115.678 284.107 114.763 283.711 113.649C283.331 112.521 283.14 111.174 283.14 109.606V94.2256H290.545V109.65C290.545 110.178 290.611 110.632 290.743 111.013C290.875 111.394 291.065 111.716 291.314 111.979C291.563 112.229 291.871 112.419 292.237 112.551C292.618 112.668 293.05 112.727 293.533 112.727C294.646 112.727 295.518 112.492 296.148 112.023C296.778 111.555 297.217 110.917 297.466 110.112C297.73 109.306 297.862 108.398 297.862 107.387ZM315.945 99.3013V118H308.541V94.2256H315.484L315.945 99.3013ZM315.066 105.3L313.331 105.344C313.331 103.527 313.55 101.909 313.99 100.488C314.429 99.0522 315.052 97.8364 315.857 96.8403C316.663 95.8442 317.623 95.0898 318.736 94.5771C319.864 94.0498 321.116 93.7861 322.493 93.7861C323.592 93.7861 324.595 93.9473 325.503 94.2695C326.426 94.5918 327.217 95.1118 327.876 95.8296C328.55 96.5474 329.063 97.4995 329.415 98.686C329.781 99.8579 329.964 101.308 329.964 103.037V118H322.515V103.015C322.515 102.062 322.383 101.337 322.12 100.839C321.856 100.327 321.475 99.9751 320.977 99.7847C320.479 99.5942 319.871 99.499 319.153 99.499C318.392 99.499 317.747 99.6455 317.22 99.9385C316.692 100.231 316.268 100.642 315.945 101.169C315.638 101.682 315.411 102.29 315.264 102.993C315.132 103.696 315.066 104.465 315.066 105.3ZM345.85 107.871H339.544C339.544 106.582 339.632 105.446 339.808 104.465C339.998 103.469 340.32 102.575 340.774 101.784C341.229 100.993 341.844 100.261 342.62 99.5869C343.309 99.0156 343.902 98.4663 344.4 97.939C344.898 97.4116 345.279 96.877 345.542 96.335C345.806 95.793 345.938 95.2144 345.938 94.5991C345.938 93.8374 345.828 93.2148 345.608 92.7314C345.403 92.248 345.088 91.8892 344.664 91.6548C344.253 91.4058 343.733 91.2812 343.104 91.2812C342.591 91.2812 342.107 91.4058 341.653 91.6548C341.214 91.9038 340.855 92.292 340.577 92.8193C340.298 93.332 340.145 94.0132 340.115 94.8628H332.667C332.71 92.6802 333.194 90.9077 334.117 89.5454C335.054 88.1685 336.299 87.165 337.852 86.5352C339.419 85.8906 341.17 85.5684 343.104 85.5684C345.242 85.5684 347.081 85.8979 348.619 86.5571C350.157 87.2163 351.336 88.1978 352.156 89.5015C352.977 90.7905 353.387 92.3799 353.387 94.2695C353.387 95.5293 353.145 96.6279 352.662 97.5654C352.193 98.4883 351.556 99.3525 350.75 100.158C349.959 100.949 349.073 101.799 348.091 102.707C347.242 103.454 346.663 104.216 346.355 104.992C346.048 105.754 345.879 106.713 345.85 107.871ZM338.643 114.55C338.643 113.496 339.024 112.617 339.786 111.914C340.547 111.196 341.536 110.837 342.752 110.837C343.968 110.837 344.957 111.196 345.718 111.914C346.48 112.617 346.861 113.496 346.861 114.55C346.861 115.605 346.48 116.491 345.718 117.209C344.957 117.912 343.968 118.264 342.752 118.264C341.536 118.264 340.547 117.912 339.786 117.209C339.024 116.491 338.643 115.605 338.643 114.55Z" fill="#424241"/>
<path d="M1363 15C1363 6.71573 1356.28 0 1348 0H1134V167H1348C1356.28 167 1363 160.284 1363 152V15Z" fill="#6B81FF"/>
<path d="M1260.77 81.3079C1263.96 81.3079 1267.09 82.2553 1269.74 84.0303C1272.4 85.8053 1274.47 88.3282 1275.69 91.2799C1276.92 94.2316 1277.24 97.4796 1276.61 100.613C1275.99 103.747 1274.45 106.625 1272.19 108.884C1269.93 111.143 1267.05 112.682 1263.92 113.305C1260.79 113.928 1257.54 113.608 1254.59 112.386C1251.64 111.163 1249.11 109.093 1247.34 106.436C1245.56 103.78 1244.62 100.657 1244.62 97.4617C1244.62 93.1774 1246.32 89.0686 1249.35 86.0392C1252.38 83.0098 1256.48 81.3079 1260.77 81.3079ZM1260.77 75.9233C1256.51 75.9233 1252.35 77.1865 1248.8 79.5532C1245.26 81.9198 1242.5 85.2837 1240.87 89.2193C1239.24 93.1549 1238.81 97.4856 1239.64 101.664C1240.48 105.842 1242.53 109.679 1245.54 112.692C1248.55 115.704 1252.39 117.755 1256.57 118.586C1260.75 119.417 1265.08 118.991 1269.01 117.361C1272.95 115.73 1276.31 112.97 1278.68 109.428C1281.04 105.886 1282.31 101.722 1282.31 97.4617C1282.31 91.7493 1280.04 86.271 1276 82.2317C1271.96 78.1925 1266.48 75.9233 1260.77 75.9233Z" fill="white"/>
<path d="M1274.23 49H1220.38C1218.96 49 1217.59 49.5673 1216.58 50.5771C1215.57 51.5869 1215 52.9565 1215 54.3846V108.231C1215 109.659 1215.57 111.028 1216.58 112.038C1217.59 113.048 1218.96 113.615 1220.38 113.615H1231.15V108.231H1220.38V70.5384H1279.62V54.3846C1279.62 52.9565 1279.05 51.5869 1278.04 50.5771C1277.03 49.5673 1275.66 49 1274.23 49ZM1220.38 65.1538V54.3846H1274.23V65.1538H1220.38Z" fill="white"/>
<path d="M1255.38 89.3849V105.539L1268.85 97.4618L1255.38 89.3849Z" fill="white"/>
</svg>
