<svg width="1363" height="301" viewBox="0 0 1363 301" fill="none" xmlns="http://www.w3.org/2000/svg">
<rect width="1363" height="301" rx="15" fill="#F0F0F0"/>
<path d="M0 15C0 6.71573 6.71573 0 15 0H37V301H15C6.71573 301 0 294.284 0 286V15Z" fill="#1E2968"/>
<path d="M109.778 134.789L117.916 104.898H128.47L115.284 144H108.462L109.778 134.789ZM102.393 104.898L110.53 134.789L111.9 144H104.998L91.8926 104.898H102.393ZM128.55 129.767V129.203C128.55 127.072 128.855 125.112 129.463 123.321C130.072 121.513 130.967 119.946 132.149 118.622C133.331 117.297 134.79 116.267 136.526 115.533C138.263 114.781 140.268 114.405 142.542 114.405C144.834 114.405 146.848 114.781 148.584 115.533C150.339 116.267 151.807 117.297 152.989 118.622C154.17 119.946 155.066 121.513 155.674 123.321C156.283 125.112 156.587 127.072 156.587 129.203V129.767C156.587 131.879 156.283 133.84 155.674 135.648C155.066 137.438 154.17 139.005 152.989 140.348C151.807 141.673 150.348 142.702 148.611 143.436C146.875 144.17 144.869 144.537 142.596 144.537C140.322 144.537 138.308 144.17 136.553 143.436C134.799 142.702 133.331 141.673 132.149 140.348C130.967 139.005 130.072 137.438 129.463 135.648C128.855 133.84 128.55 131.879 128.55 129.767ZM137.601 129.203V129.767C137.601 130.859 137.681 131.879 137.842 132.828C138.003 133.777 138.272 134.61 138.648 135.326C139.024 136.024 139.534 136.57 140.179 136.964C140.823 137.358 141.629 137.555 142.596 137.555C143.545 137.555 144.332 137.358 144.959 136.964C145.604 136.57 146.114 136.024 146.49 135.326C146.866 134.61 147.134 133.777 147.295 132.828C147.457 131.879 147.537 130.859 147.537 129.767V129.203C147.537 128.146 147.457 127.153 147.295 126.222C147.134 125.273 146.866 124.44 146.49 123.724C146.114 122.99 145.604 122.417 144.959 122.005C144.314 121.594 143.509 121.388 142.542 121.388C141.593 121.388 140.796 121.594 140.152 122.005C139.525 122.417 139.024 122.99 138.648 123.724C138.272 124.44 138.003 125.273 137.842 126.222C137.681 127.153 137.601 128.146 137.601 129.203ZM175.923 114.942V121.227H158.414V114.942H175.923ZM162.093 107.718H171.143V134.52C171.143 135.29 171.233 135.89 171.412 136.319C171.591 136.731 171.895 137.027 172.325 137.206C172.772 137.367 173.363 137.447 174.097 137.447C174.616 137.447 175.046 137.438 175.386 137.42C175.726 137.385 176.049 137.34 176.353 137.286V143.758C175.583 144.009 174.778 144.197 173.936 144.322C173.095 144.465 172.199 144.537 171.25 144.537C169.317 144.537 167.661 144.233 166.282 143.624C164.922 143.015 163.883 142.057 163.167 140.75C162.451 139.444 162.093 137.743 162.093 135.648V107.718ZM193.594 144.537C191.231 144.537 189.118 144.17 187.256 143.436C185.394 142.684 183.819 141.655 182.53 140.348C181.259 139.041 180.283 137.537 179.603 135.836C178.94 134.135 178.609 132.336 178.609 130.438V129.417C178.609 127.287 178.904 125.318 179.495 123.509C180.086 121.683 180.963 120.09 182.127 118.729C183.291 117.368 184.75 116.312 186.504 115.56C188.259 114.79 190.3 114.405 192.627 114.405C194.686 114.405 196.53 114.736 198.16 115.399C199.789 116.061 201.167 117.01 202.295 118.246C203.441 119.481 204.31 120.976 204.9 122.73C205.509 124.485 205.813 126.454 205.813 128.639V132.318H182.073V126.651H196.978V125.953C196.996 124.986 196.826 124.163 196.468 123.482C196.128 122.802 195.626 122.283 194.964 121.925C194.301 121.567 193.496 121.388 192.547 121.388C191.562 121.388 190.748 121.603 190.103 122.032C189.476 122.462 188.984 123.053 188.626 123.805C188.286 124.539 188.044 125.389 187.901 126.356C187.758 127.323 187.686 128.343 187.686 129.417V130.438C187.686 131.512 187.829 132.488 188.116 133.365C188.42 134.243 188.85 134.994 189.405 135.621C189.978 136.23 190.658 136.704 191.446 137.044C192.251 137.385 193.165 137.555 194.185 137.555C195.42 137.555 196.638 137.322 197.837 136.856C199.037 136.391 200.066 135.621 200.926 134.547L205.035 139.435C204.444 140.276 203.602 141.091 202.51 141.878C201.436 142.666 200.147 143.311 198.643 143.812C197.139 144.295 195.456 144.537 193.594 144.537ZM245.855 130.76H255.254C255.129 133.482 254.395 135.881 253.052 137.958C251.709 140.034 249.847 141.655 247.466 142.818C245.103 143.964 242.31 144.537 239.087 144.537C236.473 144.537 234.137 144.098 232.078 143.221C230.037 142.344 228.3 141.082 226.868 139.435C225.454 137.787 224.371 135.791 223.619 133.446C222.885 131.1 222.518 128.46 222.518 125.523V123.402C222.518 120.466 222.903 117.825 223.672 115.479C224.46 113.116 225.57 111.111 227.002 109.464C228.453 107.799 230.189 106.528 232.212 105.65C234.236 104.773 236.482 104.334 238.953 104.334C242.355 104.334 245.228 104.943 247.574 106.161C249.919 107.378 251.736 109.052 253.025 111.183C254.314 113.295 255.075 115.703 255.308 118.407H245.909C245.873 116.939 245.622 115.712 245.157 114.728C244.691 113.725 243.957 112.973 242.955 112.472C241.952 111.97 240.618 111.72 238.953 111.72C237.789 111.72 236.778 111.935 235.918 112.364C235.059 112.794 234.343 113.474 233.77 114.405C233.197 115.336 232.767 116.545 232.481 118.031C232.212 119.499 232.078 121.271 232.078 123.348V125.523C232.078 127.6 232.203 129.373 232.454 130.841C232.705 132.309 233.108 133.508 233.663 134.439C234.218 135.37 234.934 136.06 235.811 136.507C236.706 136.937 237.798 137.152 239.087 137.152C240.52 137.152 241.728 136.928 242.713 136.48C243.698 136.015 244.458 135.317 244.996 134.386C245.533 133.437 245.819 132.228 245.855 130.76ZM268.145 102.75V144H259.095V102.75H268.145ZM267.071 128.478L264.949 128.531C264.949 126.49 265.2 124.61 265.701 122.892C266.202 121.173 266.919 119.678 267.85 118.407C268.781 117.136 269.9 116.151 271.207 115.453C272.514 114.754 273.964 114.405 275.557 114.405C276.989 114.405 278.296 114.611 279.478 115.023C280.678 115.435 281.707 116.097 282.566 117.01C283.444 117.923 284.115 119.114 284.581 120.582C285.064 122.05 285.306 123.84 285.306 125.953V144H276.202V125.899C276.202 124.718 276.032 123.805 275.691 123.16C275.369 122.498 274.904 122.041 274.295 121.791C273.686 121.522 272.943 121.388 272.066 121.388C271.01 121.388 270.15 121.567 269.488 121.925C268.825 122.283 268.315 122.784 267.957 123.429C267.617 124.055 267.384 124.798 267.259 125.658C267.133 126.517 267.071 127.457 267.071 128.478ZM305.42 136.695V124.718C305.42 123.894 305.304 123.187 305.071 122.596C304.839 122.005 304.472 121.549 303.97 121.227C303.469 120.886 302.798 120.716 301.956 120.716C301.276 120.716 300.694 120.833 300.21 121.065C299.727 121.298 299.36 121.647 299.109 122.113C298.859 122.578 298.733 123.169 298.733 123.885H289.683C289.683 122.542 289.979 121.298 290.569 120.152C291.178 118.989 292.037 117.977 293.147 117.118C294.275 116.258 295.618 115.596 297.176 115.13C298.751 114.647 300.506 114.405 302.439 114.405C304.749 114.405 306.808 114.79 308.616 115.56C310.442 116.33 311.884 117.485 312.94 119.024C313.996 120.546 314.524 122.462 314.524 124.771V136.668C314.524 138.566 314.632 140.007 314.847 140.992C315.062 141.959 315.366 142.809 315.76 143.543V144H306.683C306.253 143.105 305.931 142.013 305.716 140.724C305.519 139.417 305.42 138.074 305.42 136.695ZM306.521 126.249L306.575 131.083H302.574C301.732 131.083 301.016 131.199 300.425 131.432C299.852 131.664 299.387 131.987 299.029 132.398C298.689 132.792 298.438 133.24 298.277 133.741C298.134 134.243 298.062 134.771 298.062 135.326C298.062 135.863 298.187 136.346 298.438 136.776C298.707 137.188 299.065 137.51 299.512 137.743C299.96 137.975 300.461 138.092 301.016 138.092C302.019 138.092 302.869 137.904 303.567 137.528C304.284 137.134 304.83 136.66 305.206 136.104C305.582 135.549 305.77 135.03 305.77 134.547L307.757 138.253C307.399 138.969 306.987 139.694 306.521 140.428C306.074 141.162 305.51 141.843 304.83 142.469C304.167 143.078 303.353 143.579 302.386 143.973C301.419 144.349 300.246 144.537 298.868 144.537C297.077 144.537 295.43 144.17 293.926 143.436C292.44 142.702 291.25 141.681 290.354 140.375C289.459 139.05 289.012 137.528 289.012 135.809C289.012 134.305 289.28 132.962 289.817 131.781C290.372 130.599 291.205 129.597 292.315 128.773C293.425 127.949 294.839 127.323 296.558 126.893C298.277 126.463 300.3 126.249 302.627 126.249H306.521ZM329.107 114.942V144H320.03V114.942H329.107ZM319.493 107.45C319.493 106.161 319.958 105.104 320.889 104.281C321.82 103.457 323.029 103.045 324.515 103.045C326.001 103.045 327.209 103.457 328.14 104.281C329.071 105.104 329.537 106.161 329.537 107.45C329.537 108.739 329.071 109.795 328.14 110.619C327.209 111.442 326.001 111.854 324.515 111.854C323.029 111.854 321.82 111.442 320.889 110.619C319.958 109.795 319.493 108.739 319.493 107.45ZM343.582 121.146V144H334.532V114.942H343.018L343.582 121.146ZM342.508 128.478L340.386 128.531C340.386 126.311 340.655 124.333 341.192 122.596C341.729 120.842 342.49 119.356 343.475 118.138C344.459 116.921 345.632 115.999 346.993 115.372C348.371 114.728 349.902 114.405 351.585 114.405C352.928 114.405 354.154 114.602 355.264 114.996C356.392 115.39 357.359 116.026 358.165 116.903C358.988 117.78 359.615 118.944 360.044 120.394C360.492 121.826 360.716 123.599 360.716 125.711V144H351.612V125.685C351.612 124.521 351.451 123.635 351.128 123.026C350.806 122.399 350.341 121.97 349.732 121.737C349.123 121.504 348.38 121.388 347.503 121.388C346.572 121.388 345.784 121.567 345.14 121.925C344.495 122.283 343.976 122.784 343.582 123.429C343.206 124.055 342.929 124.798 342.75 125.658C342.588 126.517 342.508 127.457 342.508 128.478Z" fill="black"/>
<path d="M104.288 72.3608V55.1172H109.397V72.3608C109.397 74.0243 109.033 75.4541 108.304 76.6504C107.575 77.8353 106.578 78.7467 105.313 79.3848C104.06 80.0228 102.647 80.3418 101.075 80.3418C99.4455 80.3418 98.0042 80.0684 96.751 79.5215C95.4977 78.9746 94.5122 78.1372 93.7944 77.0093C93.0767 75.87 92.7178 74.4287 92.7178 72.6855H97.8618C97.8618 73.597 97.9871 74.3205 98.2378 74.856C98.4998 75.3914 98.8701 75.7731 99.3486 76.001C99.8271 76.2288 100.403 76.3428 101.075 76.3428C101.724 76.3428 102.288 76.189 102.767 75.8813C103.245 75.5737 103.615 75.1237 103.877 74.5312C104.151 73.9388 104.288 73.2153 104.288 72.3608ZM123.445 75.8301V67.5928C123.445 67.0003 123.348 66.4933 123.155 66.0718C122.961 65.6388 122.659 65.3027 122.249 65.0635C121.85 64.8242 121.332 64.7046 120.694 64.7046C120.147 64.7046 119.674 64.8014 119.275 64.9951C118.877 65.1774 118.569 65.4451 118.353 65.7983C118.136 66.1401 118.028 66.5446 118.028 67.0117H113.106C113.106 66.2256 113.288 65.4793 113.653 64.7729C114.017 64.0666 114.547 63.4456 115.242 62.9102C115.937 62.3633 116.763 61.936 117.72 61.6284C118.689 61.3208 119.771 61.167 120.967 61.167C122.403 61.167 123.679 61.4062 124.795 61.8848C125.912 62.3633 126.789 63.0811 127.427 64.0381C128.077 64.9951 128.401 66.1914 128.401 67.627V75.5396C128.401 76.5535 128.464 77.3853 128.589 78.0347C128.715 78.6727 128.897 79.231 129.136 79.7095V80H124.163C123.924 79.4987 123.742 78.8721 123.616 78.1201C123.502 77.3568 123.445 76.5934 123.445 75.8301ZM124.095 68.7378L124.129 71.5234H121.377C120.728 71.5234 120.164 71.5975 119.686 71.7456C119.207 71.8937 118.814 72.1045 118.506 72.3779C118.199 72.64 117.971 72.9476 117.823 73.3008C117.686 73.654 117.618 74.0413 117.618 74.4629C117.618 74.8844 117.715 75.2661 117.908 75.6079C118.102 75.9383 118.381 76.2004 118.746 76.394C119.11 76.5763 119.537 76.6675 120.027 76.6675C120.768 76.6675 121.412 76.5194 121.958 76.2231C122.505 75.9269 122.927 75.5623 123.223 75.1294C123.531 74.6965 123.69 74.2863 123.702 73.8989L125 75.9839C124.818 76.451 124.568 76.9352 124.249 77.4365C123.941 77.9378 123.548 78.4106 123.069 78.855C122.591 79.2879 122.015 79.6468 121.343 79.9316C120.671 80.2051 119.874 80.3418 118.951 80.3418C117.777 80.3418 116.712 80.1082 115.755 79.6411C114.809 79.1626 114.057 78.5075 113.499 77.6758C112.952 76.8327 112.679 75.8757 112.679 74.8047C112.679 73.8363 112.861 72.9761 113.226 72.2241C113.59 71.4722 114.126 70.8398 114.832 70.3271C115.55 69.8031 116.444 69.41 117.515 69.1479C118.586 68.8745 119.828 68.7378 121.241 68.7378H124.095ZM142.176 75.8301V67.5928C142.176 67.0003 142.079 66.4933 141.885 66.0718C141.692 65.6388 141.39 65.3027 140.979 65.0635C140.581 64.8242 140.062 64.7046 139.424 64.7046C138.877 64.7046 138.405 64.8014 138.006 64.9951C137.607 65.1774 137.299 65.4451 137.083 65.7983C136.867 66.1401 136.758 66.5446 136.758 67.0117H131.836C131.836 66.2256 132.019 65.4793 132.383 64.7729C132.748 64.0666 133.278 63.4456 133.973 62.9102C134.668 62.3633 135.494 61.936 136.451 61.6284C137.419 61.3208 138.501 61.167 139.698 61.167C141.133 61.167 142.409 61.4062 143.526 61.8848C144.642 62.3633 145.52 63.0811 146.158 64.0381C146.807 64.9951 147.132 66.1914 147.132 67.627V75.5396C147.132 76.5535 147.194 77.3853 147.32 78.0347C147.445 78.6727 147.627 79.231 147.867 79.7095V80H142.894C142.654 79.4987 142.472 78.8721 142.347 78.1201C142.233 77.3568 142.176 76.5934 142.176 75.8301ZM142.825 68.7378L142.859 71.5234H140.108C139.458 71.5234 138.895 71.5975 138.416 71.7456C137.938 71.8937 137.544 72.1045 137.237 72.3779C136.929 72.64 136.701 72.9476 136.553 73.3008C136.417 73.654 136.348 74.0413 136.348 74.4629C136.348 74.8844 136.445 75.2661 136.639 75.6079C136.832 75.9383 137.111 76.2004 137.476 76.394C137.841 76.5763 138.268 76.6675 138.758 76.6675C139.498 76.6675 140.142 76.5194 140.689 76.2231C141.236 75.9269 141.657 75.5623 141.954 75.1294C142.261 74.6965 142.421 74.2863 142.432 73.8989L143.731 75.9839C143.549 76.451 143.298 76.9352 142.979 77.4365C142.671 77.9378 142.278 78.4106 141.8 78.855C141.321 79.2879 140.746 79.6468 140.074 79.9316C139.402 80.2051 138.604 80.3418 137.681 80.3418C136.508 80.3418 135.442 80.1082 134.485 79.6411C133.54 79.1626 132.788 78.5075 132.229 77.6758C131.683 76.8327 131.409 75.8757 131.409 74.8047C131.409 73.8363 131.591 72.9761 131.956 72.2241C132.321 71.4722 132.856 70.8398 133.562 70.3271C134.28 69.8031 135.175 69.41 136.246 69.1479C137.317 68.8745 138.558 68.7378 139.971 68.7378H142.825ZM157.198 80H152.242V59.8682C152.242 58.4668 152.515 57.2876 153.062 56.3306C153.62 55.3621 154.401 54.633 155.403 54.1431C156.417 53.6418 157.619 53.3911 159.009 53.3911C159.465 53.3911 159.904 53.4253 160.325 53.4937C160.747 53.5506 161.157 53.6247 161.556 53.7158L161.504 57.4243C161.288 57.3674 161.06 57.3275 160.821 57.3047C160.582 57.2819 160.302 57.2705 159.983 57.2705C159.391 57.2705 158.884 57.373 158.462 57.5781C158.052 57.7718 157.739 58.0623 157.522 58.4497C157.306 58.8371 157.198 59.3099 157.198 59.8682V80ZM160.889 61.5088V64.9951H149.49V61.5088H160.889ZM173.45 75.8301V67.5928C173.45 67.0003 173.353 66.4933 173.16 66.0718C172.966 65.6388 172.664 65.3027 172.254 65.0635C171.855 64.8242 171.337 64.7046 170.699 64.7046C170.152 64.7046 169.679 64.8014 169.28 64.9951C168.882 65.1774 168.574 65.4451 168.357 65.7983C168.141 66.1401 168.033 66.5446 168.033 67.0117H163.111C163.111 66.2256 163.293 65.4793 163.658 64.7729C164.022 64.0666 164.552 63.4456 165.247 62.9102C165.942 62.3633 166.768 61.936 167.725 61.6284C168.694 61.3208 169.776 61.167 170.972 61.167C172.408 61.167 173.684 61.4062 174.8 61.8848C175.917 62.3633 176.794 63.0811 177.432 64.0381C178.082 64.9951 178.406 66.1914 178.406 67.627V75.5396C178.406 76.5535 178.469 77.3853 178.594 78.0347C178.72 78.6727 178.902 79.231 179.141 79.7095V80H174.168C173.929 79.4987 173.746 78.8721 173.621 78.1201C173.507 77.3568 173.45 76.5934 173.45 75.8301ZM174.1 68.7378L174.134 71.5234H171.382C170.733 71.5234 170.169 71.5975 169.69 71.7456C169.212 71.8937 168.819 72.1045 168.511 72.3779C168.204 72.64 167.976 72.9476 167.828 73.3008C167.691 73.654 167.623 74.0413 167.623 74.4629C167.623 74.8844 167.719 75.2661 167.913 75.6079C168.107 75.9383 168.386 76.2004 168.75 76.394C169.115 76.5763 169.542 76.6675 170.032 76.6675C170.773 76.6675 171.417 76.5194 171.963 76.2231C172.51 75.9269 172.932 75.5623 173.228 75.1294C173.536 74.6965 173.695 74.2863 173.707 73.8989L175.005 75.9839C174.823 76.451 174.572 76.9352 174.253 77.4365C173.946 77.9378 173.553 78.4106 173.074 78.855C172.596 79.2879 172.02 79.6468 171.348 79.9316C170.676 80.2051 169.878 80.3418 168.956 80.3418C167.782 80.3418 166.717 80.1082 165.76 79.6411C164.814 79.1626 164.062 78.5075 163.504 77.6758C162.957 76.8327 162.684 75.8757 162.684 74.8047C162.684 73.8363 162.866 72.9761 163.23 72.2241C163.595 71.4722 164.131 70.8398 164.837 70.3271C165.555 69.8031 166.449 69.41 167.52 69.1479C168.591 68.8745 169.833 68.7378 171.246 68.7378H174.1ZM187.122 65.542V80H182.2V61.5088H186.832L187.122 65.542ZM192.693 61.3892L192.608 65.9521C192.369 65.918 192.078 65.8895 191.736 65.8667C191.406 65.8325 191.104 65.8154 190.831 65.8154C190.136 65.8154 189.532 65.9066 189.019 66.0889C188.518 66.2598 188.096 66.5161 187.754 66.8579C187.424 67.1997 187.173 67.6156 187.002 68.1055C186.843 68.5954 186.752 69.1536 186.729 69.7803L185.738 69.4727C185.738 68.2764 185.857 67.1769 186.097 66.1743C186.336 65.1603 186.683 64.2773 187.139 63.5254C187.606 62.7734 188.176 62.1924 188.848 61.7822C189.52 61.3721 190.289 61.167 191.155 61.167C191.429 61.167 191.708 61.1898 191.993 61.2354C192.278 61.2695 192.511 61.3208 192.693 61.3892ZM220.635 65.2515V69.2505H207.647V65.2515H220.635ZM209.168 55.1172V80H204.041V55.1172H209.168ZM224.292 55.1172V80H219.183V55.1172H224.292ZM238.426 75.8301V67.5928C238.426 67.0003 238.329 66.4933 238.135 66.0718C237.942 65.6388 237.64 65.3027 237.229 65.0635C236.831 64.8242 236.312 64.7046 235.674 64.7046C235.127 64.7046 234.655 64.8014 234.256 64.9951C233.857 65.1774 233.549 65.4451 233.333 65.7983C233.117 66.1401 233.008 66.5446 233.008 67.0117H228.086C228.086 66.2256 228.269 65.4793 228.633 64.7729C228.998 64.0666 229.528 63.4456 230.223 62.9102C230.918 62.3633 231.744 61.936 232.701 61.6284C233.669 61.3208 234.751 61.167 235.948 61.167C237.383 61.167 238.659 61.4062 239.776 61.8848C240.892 62.3633 241.77 63.0811 242.408 64.0381C243.057 64.9951 243.382 66.1914 243.382 67.627V75.5396C243.382 76.5535 243.444 77.3853 243.57 78.0347C243.695 78.6727 243.877 79.231 244.117 79.7095V80H239.144C238.904 79.4987 238.722 78.8721 238.597 78.1201C238.483 77.3568 238.426 76.5934 238.426 75.8301ZM239.075 68.7378L239.109 71.5234H236.358C235.708 71.5234 235.145 71.5975 234.666 71.7456C234.188 71.8937 233.794 72.1045 233.487 72.3779C233.179 72.64 232.951 72.9476 232.803 73.3008C232.667 73.654 232.598 74.0413 232.598 74.4629C232.598 74.8844 232.695 75.2661 232.889 75.6079C233.082 75.9383 233.361 76.2004 233.726 76.394C234.091 76.5763 234.518 76.6675 235.008 76.6675C235.748 76.6675 236.392 76.5194 236.939 76.2231C237.486 75.9269 237.907 75.5623 238.204 75.1294C238.511 74.6965 238.671 74.2863 238.682 73.8989L239.981 75.9839C239.799 76.451 239.548 76.9352 239.229 77.4365C238.921 77.9378 238.528 78.4106 238.05 78.855C237.571 79.2879 236.996 79.6468 236.324 79.9316C235.652 80.2051 234.854 80.3418 233.931 80.3418C232.758 80.3418 231.692 80.1082 230.735 79.6411C229.79 79.1626 229.038 78.5075 228.479 77.6758C227.933 76.8327 227.659 75.8757 227.659 74.8047C227.659 73.8363 227.841 72.9761 228.206 72.2241C228.571 71.4722 229.106 70.8398 229.812 70.3271C230.53 69.8031 231.425 69.41 232.496 69.1479C233.567 68.8745 234.808 68.7378 236.221 68.7378H239.075ZM252.457 75.2148L256.302 61.5088H259.429L258.421 66.8921L254.576 80H251.961L252.457 75.2148ZM250.508 61.5088L253.26 75.1978L253.516 80H250.44L245.757 61.5088H250.508ZM262.95 74.9756L265.633 61.5088H270.401L265.718 80H262.659L262.95 74.9756ZM259.856 61.5088L263.685 75.1123L264.214 80H261.583L257.737 66.9092L256.763 61.5088H259.856ZM278.074 53.75V80H273.135V53.75H278.074ZM287.337 61.5088V80H282.398V61.5088H287.337ZM282.09 56.6895C282.09 55.9717 282.341 55.3792 282.842 54.9121C283.344 54.445 284.016 54.2114 284.859 54.2114C285.691 54.2114 286.357 54.445 286.858 54.9121C287.371 55.3792 287.627 55.9717 287.627 56.6895C287.627 57.4072 287.371 57.9997 286.858 58.4668C286.357 58.9339 285.691 59.1675 284.859 59.1675C284.016 59.1675 283.344 58.9339 282.842 58.4668C282.341 57.9997 282.09 57.4072 282.09 56.6895Z" fill="#888888"/>
<rect x="92" y="181" width="1179" height="80" rx="13.3333" fill="#CCCCCC"/>
<rect x="107" y="196.333" width="208" height="49.3333" rx="4.66667" fill="#888888" stroke="#888888" stroke-width="4"/>
<path d="M171.823 213.167H177.792C178.958 213.167 179.972 213.34 180.833 213.687C181.694 214.035 182.358 214.549 182.823 215.229C183.295 215.91 183.531 216.75 183.531 217.75C183.531 218.618 183.396 219.344 183.125 219.927C182.854 220.51 182.476 220.993 181.99 221.375C181.51 221.75 180.951 222.059 180.312 222.302L179.115 222.979H174.104L174.083 220.156H177.792C178.257 220.156 178.642 220.073 178.948 219.906C179.253 219.74 179.483 219.503 179.635 219.198C179.795 218.885 179.875 218.514 179.875 218.083C179.875 217.646 179.795 217.271 179.635 216.958C179.476 216.646 179.24 216.406 178.927 216.24C178.622 216.073 178.243 215.99 177.792 215.99H175.479V228.333H171.823V213.167ZM180.125 228.333L176.771 221.625L180.646 221.604L184.042 228.177V228.333H180.125ZM191.031 228.542C190.115 228.542 189.295 228.399 188.573 228.115C187.851 227.823 187.24 227.424 186.74 226.917C186.247 226.41 185.868 225.826 185.604 225.167C185.347 224.507 185.219 223.809 185.219 223.073V222.677C185.219 221.851 185.333 221.087 185.562 220.385C185.792 219.677 186.132 219.059 186.583 218.531C187.035 218.003 187.601 217.594 188.281 217.302C188.962 217.003 189.753 216.854 190.656 216.854C191.455 216.854 192.17 216.983 192.802 217.24C193.434 217.497 193.969 217.865 194.406 218.344C194.851 218.823 195.187 219.403 195.417 220.083C195.653 220.764 195.771 221.528 195.771 222.375V223.802H186.562V221.604H192.344V221.333C192.351 220.958 192.285 220.639 192.146 220.375C192.014 220.111 191.819 219.91 191.562 219.771C191.306 219.632 190.993 219.562 190.625 219.562C190.243 219.562 189.927 219.646 189.677 219.812C189.434 219.979 189.243 220.208 189.104 220.5C188.972 220.785 188.878 221.115 188.823 221.49C188.767 221.865 188.74 222.26 188.74 222.677V223.073C188.74 223.49 188.795 223.868 188.906 224.208C189.024 224.549 189.191 224.84 189.406 225.083C189.628 225.319 189.892 225.503 190.198 225.635C190.51 225.767 190.865 225.833 191.26 225.833C191.74 225.833 192.212 225.743 192.677 225.562C193.142 225.382 193.542 225.083 193.875 224.667L195.469 226.562C195.24 226.889 194.913 227.205 194.49 227.51C194.073 227.816 193.573 228.066 192.99 228.26C192.406 228.448 191.753 228.542 191.031 228.542ZM203.052 225.5V220.854C203.052 220.535 203.007 220.26 202.917 220.031C202.826 219.802 202.684 219.625 202.49 219.5C202.295 219.368 202.035 219.302 201.708 219.302C201.444 219.302 201.219 219.347 201.031 219.437C200.844 219.528 200.701 219.663 200.604 219.844C200.507 220.024 200.458 220.253 200.458 220.531H196.948C196.948 220.01 197.062 219.528 197.292 219.083C197.528 218.632 197.861 218.24 198.292 217.906C198.729 217.573 199.25 217.316 199.854 217.135C200.465 216.948 201.146 216.854 201.896 216.854C202.792 216.854 203.59 217.003 204.292 217.302C205 217.601 205.559 218.049 205.969 218.646C206.378 219.236 206.583 219.979 206.583 220.875V225.49C206.583 226.226 206.625 226.785 206.708 227.167C206.792 227.542 206.91 227.872 207.062 228.156V228.333H203.542C203.375 227.986 203.25 227.562 203.167 227.062C203.09 226.556 203.052 226.035 203.052 225.5ZM203.479 221.448L203.5 223.323H201.948C201.622 223.323 201.344 223.368 201.115 223.458C200.892 223.549 200.712 223.674 200.573 223.833C200.441 223.986 200.344 224.16 200.281 224.354C200.226 224.549 200.198 224.753 200.198 224.969C200.198 225.177 200.247 225.365 200.344 225.531C200.448 225.691 200.587 225.816 200.76 225.906C200.934 225.997 201.128 226.042 201.344 226.042C201.733 226.042 202.062 225.969 202.333 225.823C202.611 225.67 202.823 225.486 202.969 225.271C203.115 225.056 203.187 224.854 203.187 224.667L203.958 226.104C203.819 226.382 203.66 226.663 203.479 226.948C203.306 227.233 203.087 227.497 202.823 227.74C202.566 227.976 202.25 228.17 201.875 228.323C201.5 228.469 201.045 228.542 200.51 228.542C199.816 228.542 199.177 228.399 198.594 228.115C198.017 227.83 197.556 227.434 197.208 226.927C196.861 226.413 196.687 225.823 196.687 225.156C196.687 224.573 196.792 224.052 197 223.594C197.215 223.135 197.538 222.747 197.969 222.427C198.399 222.108 198.948 221.865 199.615 221.698C200.281 221.531 201.066 221.448 201.969 221.448H203.479ZM213.292 225.833C213.618 225.833 213.896 225.774 214.125 225.656C214.361 225.531 214.538 225.358 214.656 225.135C214.781 224.906 214.84 224.632 214.833 224.312H218.135C218.142 225.16 217.934 225.903 217.51 226.542C217.094 227.174 216.524 227.667 215.802 228.021C215.087 228.368 214.278 228.542 213.375 228.542C212.493 228.542 211.722 228.399 211.062 228.115C210.403 227.823 209.851 227.42 209.406 226.906C208.969 226.385 208.639 225.778 208.417 225.083C208.201 224.389 208.094 223.635 208.094 222.823V222.583C208.094 221.771 208.201 221.017 208.417 220.323C208.639 219.622 208.969 219.014 209.406 218.5C209.851 217.979 210.399 217.576 211.052 217.292C211.712 217 212.479 216.854 213.354 216.854C214.292 216.854 215.118 217.031 215.833 217.385C216.556 217.74 217.122 218.253 217.531 218.927C217.941 219.601 218.142 220.417 218.135 221.375H214.833C214.84 221.035 214.788 220.729 214.677 220.458C214.566 220.187 214.392 219.972 214.156 219.812C213.927 219.646 213.632 219.562 213.271 219.562C212.91 219.562 212.618 219.642 212.396 219.802C212.174 219.962 212.003 220.184 211.885 220.469C211.774 220.747 211.698 221.066 211.656 221.427C211.622 221.788 211.604 222.174 211.604 222.583V222.823C211.604 223.24 211.622 223.632 211.656 224C211.698 224.361 211.778 224.681 211.896 224.958C212.014 225.229 212.184 225.444 212.406 225.604C212.628 225.757 212.924 225.833 213.292 225.833ZM225.573 217.062V219.5H218.781V217.062H225.573ZM220.208 214.26H223.719V224.656C223.719 224.955 223.753 225.187 223.823 225.354C223.892 225.514 224.01 225.628 224.177 225.698C224.351 225.76 224.58 225.792 224.865 225.792C225.066 225.792 225.233 225.788 225.365 225.781C225.497 225.767 225.622 225.75 225.74 225.729V228.24C225.441 228.337 225.128 228.41 224.802 228.458C224.476 228.514 224.128 228.542 223.76 228.542C223.01 228.542 222.368 228.424 221.833 228.187C221.306 227.951 220.903 227.58 220.625 227.073C220.347 226.566 220.208 225.906 220.208 225.094V214.26ZM233.167 223.573V213.167H236.812V223.573C236.812 224.587 236.58 225.465 236.115 226.208C235.656 226.951 235.031 227.528 234.24 227.937C233.455 228.34 232.573 228.542 231.594 228.542C230.58 228.542 229.677 228.372 228.885 228.031C228.101 227.691 227.483 227.167 227.031 226.458C226.587 225.75 226.365 224.847 226.365 223.75H230.031C230.031 224.264 230.09 224.667 230.208 224.958C230.326 225.243 230.5 225.444 230.729 225.562C230.965 225.674 231.253 225.729 231.594 225.729C231.927 225.729 232.208 225.646 232.437 225.479C232.674 225.306 232.854 225.059 232.979 224.74C233.104 224.413 233.167 224.024 233.167 223.573ZM246.948 224.302C246.948 224.066 246.913 223.854 246.844 223.667C246.774 223.472 246.646 223.292 246.458 223.125C246.271 222.958 246 222.792 245.646 222.625C245.299 222.451 244.84 222.271 244.271 222.083C243.604 221.861 242.962 221.611 242.344 221.333C241.726 221.049 241.174 220.719 240.687 220.344C240.201 219.962 239.816 219.517 239.531 219.01C239.247 218.497 239.104 217.899 239.104 217.219C239.104 216.566 239.25 215.979 239.542 215.458C239.833 214.931 240.24 214.483 240.76 214.115C241.288 213.74 241.906 213.455 242.615 213.26C243.323 213.059 244.097 212.958 244.937 212.958C246.049 212.958 247.028 213.153 247.875 213.542C248.729 213.924 249.396 214.469 249.875 215.177C250.361 215.878 250.604 216.708 250.604 217.667H246.969C246.969 217.285 246.889 216.948 246.729 216.656C246.576 216.365 246.344 216.135 246.031 215.969C245.719 215.802 245.326 215.719 244.854 215.719C244.396 215.719 244.01 215.788 243.698 215.927C243.385 216.066 243.149 216.253 242.99 216.49C242.83 216.719 242.75 216.972 242.75 217.25C242.75 217.479 242.812 217.687 242.937 217.875C243.069 218.056 243.253 218.226 243.49 218.385C243.733 218.545 244.024 218.698 244.365 218.844C244.712 218.99 245.101 219.132 245.531 219.271C246.337 219.528 247.052 219.816 247.677 220.135C248.309 220.448 248.84 220.806 249.271 221.208C249.708 221.604 250.038 222.056 250.26 222.562C250.49 223.069 250.604 223.642 250.604 224.281C250.604 224.962 250.472 225.566 250.208 226.094C249.944 226.622 249.566 227.069 249.073 227.437C248.58 227.799 247.99 228.073 247.302 228.26C246.615 228.448 245.847 228.542 245 228.542C244.222 228.542 243.455 228.444 242.698 228.25C241.948 228.049 241.267 227.743 240.656 227.333C240.045 226.917 239.556 226.385 239.187 225.74C238.826 225.087 238.646 224.312 238.646 223.417H242.312C242.312 223.861 242.372 224.236 242.49 224.542C242.608 224.847 242.781 225.094 243.01 225.281C243.24 225.462 243.521 225.594 243.854 225.677C244.187 225.753 244.569 225.792 245 225.792C245.465 225.792 245.84 225.726 246.125 225.594C246.41 225.455 246.618 225.274 246.75 225.052C246.882 224.823 246.948 224.573 246.948 224.302Z" fill="white"/>
<rect x="339" y="196.333" width="208" height="49.3333" rx="4.66667" fill="#888888" stroke="#888888" stroke-width="4"/>
<path d="M418.844 213.167V228.333H415.198L409.833 218.896V228.333H406.177V213.167H409.833L415.198 222.604V213.167H418.844ZM420.552 222.812V222.594C420.552 221.767 420.67 221.007 420.906 220.312C421.142 219.611 421.49 219.003 421.948 218.49C422.406 217.976 422.972 217.576 423.646 217.292C424.319 217 425.097 216.854 425.979 216.854C426.868 216.854 427.649 217 428.323 217.292C429.003 217.576 429.573 217.976 430.031 218.49C430.49 219.003 430.837 219.611 431.073 220.312C431.309 221.007 431.427 221.767 431.427 222.594V222.812C431.427 223.632 431.309 224.392 431.073 225.094C430.837 225.788 430.49 226.396 430.031 226.917C429.573 227.431 429.007 227.83 428.333 228.115C427.66 228.399 426.882 228.542 426 228.542C425.118 228.542 424.337 228.399 423.656 228.115C422.976 227.83 422.406 227.431 421.948 226.917C421.49 226.396 421.142 225.788 420.906 225.094C420.67 224.392 420.552 223.632 420.552 222.812ZM424.062 222.594V222.812C424.062 223.236 424.094 223.632 424.156 224C424.219 224.368 424.323 224.691 424.469 224.969C424.615 225.24 424.812 225.451 425.062 225.604C425.312 225.757 425.625 225.833 426 225.833C426.368 225.833 426.674 225.757 426.917 225.604C427.167 225.451 427.365 225.24 427.51 224.969C427.656 224.691 427.76 224.368 427.823 224C427.885 223.632 427.917 223.236 427.917 222.812V222.594C427.917 222.184 427.885 221.799 427.823 221.437C427.76 221.069 427.656 220.747 427.51 220.469C427.365 220.184 427.167 219.962 426.917 219.802C426.667 219.642 426.354 219.562 425.979 219.562C425.611 219.562 425.302 219.642 425.052 219.802C424.809 219.962 424.615 220.184 424.469 220.469C424.323 220.747 424.219 221.069 424.156 221.437C424.094 221.799 424.062 222.184 424.062 222.594ZM439.469 225.75V212.333H443V228.333H439.833L439.469 225.75ZM432.552 222.833V222.615C432.552 221.76 432.646 220.983 432.833 220.281C433.021 219.573 433.299 218.965 433.667 218.458C434.035 217.944 434.493 217.549 435.042 217.271C435.59 216.993 436.222 216.854 436.938 216.854C437.576 216.854 438.135 217.003 438.615 217.302C439.094 217.594 439.503 218.003 439.844 218.531C440.184 219.059 440.462 219.677 440.677 220.385C440.892 221.087 441.056 221.844 441.167 222.656V222.917C441.056 223.681 440.892 224.403 440.677 225.083C440.462 225.757 440.184 226.354 439.844 226.875C439.503 227.396 439.09 227.806 438.604 228.104C438.125 228.396 437.563 228.542 436.917 228.542C436.201 228.542 435.569 228.399 435.021 228.115C434.479 227.83 434.024 227.431 433.656 226.917C433.295 226.403 433.021 225.799 432.833 225.104C432.646 224.41 432.552 223.653 432.552 222.833ZM436.063 222.615V222.833C436.063 223.257 436.09 223.649 436.146 224.01C436.201 224.372 436.295 224.691 436.427 224.969C436.566 225.24 436.747 225.451 436.969 225.604C437.198 225.757 437.479 225.833 437.813 225.833C438.264 225.833 438.635 225.726 438.927 225.51C439.226 225.295 439.444 224.99 439.583 224.594C439.729 224.198 439.792 223.733 439.771 223.198V222.375C439.785 221.917 439.753 221.514 439.677 221.167C439.601 220.812 439.479 220.517 439.313 220.281C439.153 220.045 438.948 219.868 438.698 219.75C438.455 219.625 438.167 219.562 437.833 219.562C437.507 219.562 437.229 219.639 437 219.792C436.778 219.944 436.597 220.16 436.458 220.437C436.319 220.708 436.219 221.031 436.156 221.406C436.094 221.774 436.063 222.177 436.063 222.615ZM450.448 228.542C449.531 228.542 448.712 228.399 447.99 228.115C447.267 227.823 446.656 227.424 446.156 226.917C445.663 226.41 445.285 225.826 445.021 225.167C444.764 224.507 444.635 223.809 444.635 223.073V222.677C444.635 221.851 444.75 221.087 444.979 220.385C445.208 219.677 445.549 219.059 446 218.531C446.451 218.003 447.017 217.594 447.698 217.302C448.378 217.003 449.17 216.854 450.073 216.854C450.872 216.854 451.587 216.983 452.219 217.24C452.851 217.497 453.385 217.865 453.823 218.344C454.267 218.823 454.604 219.403 454.833 220.083C455.069 220.764 455.188 221.528 455.188 222.375V223.802H445.979V221.604H451.76V221.333C451.767 220.958 451.701 220.639 451.563 220.375C451.431 220.111 451.236 219.91 450.979 219.771C450.722 219.632 450.41 219.562 450.042 219.562C449.66 219.562 449.344 219.646 449.094 219.812C448.851 219.979 448.66 220.208 448.521 220.5C448.389 220.785 448.295 221.115 448.24 221.49C448.184 221.865 448.156 222.26 448.156 222.677V223.073C448.156 223.49 448.212 223.868 448.323 224.208C448.441 224.549 448.608 224.84 448.823 225.083C449.045 225.319 449.309 225.503 449.615 225.635C449.927 225.767 450.281 225.833 450.677 225.833C451.156 225.833 451.628 225.743 452.094 225.562C452.559 225.382 452.958 225.083 453.292 224.667L454.885 226.562C454.656 226.889 454.33 227.205 453.906 227.51C453.49 227.816 452.99 228.066 452.406 228.26C451.823 228.448 451.17 228.542 450.448 228.542ZM462.813 223.573V213.167H466.458V223.573C466.458 224.587 466.226 225.465 465.76 226.208C465.302 226.951 464.677 227.528 463.885 227.937C463.101 228.34 462.219 228.542 461.24 228.542C460.226 228.542 459.323 228.372 458.531 228.031C457.747 227.691 457.128 227.167 456.677 226.458C456.233 225.75 456.01 224.847 456.01 223.75H459.677C459.677 224.264 459.736 224.667 459.854 224.958C459.972 225.243 460.146 225.444 460.375 225.562C460.611 225.674 460.899 225.729 461.24 225.729C461.573 225.729 461.854 225.646 462.083 225.479C462.319 225.306 462.5 225.059 462.625 224.74C462.75 224.413 462.813 224.024 462.813 223.573ZM476.594 224.302C476.594 224.066 476.559 223.854 476.49 223.667C476.42 223.472 476.292 223.292 476.104 223.125C475.917 222.958 475.646 222.792 475.292 222.625C474.944 222.451 474.486 222.271 473.917 222.083C473.25 221.861 472.608 221.611 471.99 221.333C471.372 221.049 470.819 220.719 470.333 220.344C469.847 219.962 469.462 219.517 469.177 219.01C468.892 218.497 468.75 217.899 468.75 217.219C468.75 216.566 468.896 215.979 469.188 215.458C469.479 214.931 469.885 214.483 470.406 214.115C470.934 213.74 471.552 213.455 472.26 213.26C472.969 213.059 473.743 212.958 474.583 212.958C475.694 212.958 476.674 213.153 477.521 213.542C478.375 213.924 479.042 214.469 479.521 215.177C480.007 215.878 480.25 216.708 480.25 217.667H476.615C476.615 217.285 476.535 216.948 476.375 216.656C476.222 216.365 475.99 216.135 475.677 215.969C475.365 215.802 474.972 215.719 474.5 215.719C474.042 215.719 473.656 215.788 473.344 215.927C473.031 216.066 472.795 216.253 472.635 216.49C472.476 216.719 472.396 216.972 472.396 217.25C472.396 217.479 472.458 217.687 472.583 217.875C472.715 218.056 472.899 218.226 473.135 218.385C473.378 218.545 473.67 218.698 474.01 218.844C474.358 218.99 474.747 219.132 475.177 219.271C475.983 219.528 476.698 219.816 477.323 220.135C477.955 220.448 478.486 220.806 478.917 221.208C479.354 221.604 479.684 222.056 479.906 222.562C480.135 223.069 480.25 223.642 480.25 224.281C480.25 224.962 480.118 225.566 479.854 226.094C479.59 226.622 479.212 227.069 478.719 227.437C478.226 227.799 477.635 228.073 476.948 228.26C476.26 228.448 475.493 228.542 474.646 228.542C473.868 228.542 473.101 228.444 472.344 228.25C471.594 228.049 470.913 227.743 470.302 227.333C469.691 226.917 469.201 226.385 468.833 225.74C468.472 225.087 468.292 224.312 468.292 223.417H471.958C471.958 223.861 472.017 224.236 472.135 224.542C472.253 224.847 472.427 225.094 472.656 225.281C472.885 225.462 473.167 225.594 473.5 225.677C473.833 225.753 474.215 225.792 474.646 225.792C475.111 225.792 475.486 225.726 475.771 225.594C476.056 225.455 476.264 225.274 476.396 225.052C476.528 224.823 476.594 224.573 476.594 224.302Z" fill="white"/>
<rect x="571" y="196.333" width="208" height="49.3333" rx="4.66667" fill="#888888" stroke="#888888" stroke-width="4"/>
<path d="M630.656 213.167H633.635L637.021 223.719L640.406 213.167H643.385L638.229 228.333H635.813L630.656 213.167ZM628.844 213.167H631.927L632.5 224.792V228.333H628.844V213.167ZM642.115 213.167H645.208V228.333H641.542V224.792L642.115 213.167ZM646.948 222.812V222.594C646.948 221.767 647.066 221.007 647.302 220.312C647.538 219.611 647.885 219.003 648.344 218.49C648.802 217.976 649.368 217.576 650.042 217.292C650.715 217 651.493 216.854 652.375 216.854C653.264 216.854 654.045 217 654.719 217.292C655.399 217.576 655.969 217.976 656.427 218.49C656.885 219.003 657.233 219.611 657.469 220.312C657.705 221.007 657.823 221.767 657.823 222.594V222.812C657.823 223.632 657.705 224.392 657.469 225.094C657.233 225.788 656.885 226.396 656.427 226.917C655.969 227.431 655.403 227.83 654.729 228.115C654.056 228.399 653.278 228.542 652.396 228.542C651.514 228.542 650.733 228.399 650.052 228.115C649.372 227.83 648.802 227.431 648.344 226.917C647.885 226.396 647.538 225.788 647.302 225.094C647.066 224.392 646.948 223.632 646.948 222.812ZM650.458 222.594V222.812C650.458 223.236 650.49 223.632 650.552 224C650.615 224.368 650.719 224.691 650.865 224.969C651.01 225.24 651.208 225.451 651.458 225.604C651.708 225.757 652.021 225.833 652.396 225.833C652.764 225.833 653.069 225.757 653.313 225.604C653.563 225.451 653.76 225.24 653.906 224.969C654.052 224.691 654.156 224.368 654.219 224C654.281 223.632 654.313 223.236 654.313 222.812V222.594C654.313 222.184 654.281 221.799 654.219 221.437C654.156 221.069 654.052 220.747 653.906 220.469C653.76 220.184 653.563 219.962 653.313 219.802C653.063 219.642 652.75 219.562 652.375 219.562C652.007 219.562 651.698 219.642 651.448 219.802C651.205 219.962 651.01 220.184 650.865 220.469C650.719 220.747 650.615 221.069 650.552 221.437C650.49 221.799 650.458 222.184 650.458 222.594ZM662.833 219.469V228.333H659.323V217.062H662.615L662.833 219.469ZM662.417 222.312L661.594 222.333C661.594 221.472 661.698 220.705 661.906 220.031C662.115 219.351 662.41 218.774 662.792 218.302C663.174 217.83 663.628 217.472 664.156 217.229C664.691 216.979 665.285 216.854 665.938 216.854C666.458 216.854 666.934 216.931 667.365 217.083C667.802 217.236 668.177 217.483 668.49 217.823C668.809 218.163 669.052 218.615 669.219 219.177C669.392 219.733 669.479 220.42 669.479 221.24V228.333H665.948V221.229C665.948 220.778 665.885 220.434 665.76 220.198C665.635 219.955 665.455 219.788 665.219 219.698C664.983 219.608 664.694 219.562 664.354 219.562C663.993 219.562 663.688 219.632 663.438 219.771C663.188 219.91 662.986 220.104 662.833 220.354C662.688 220.597 662.58 220.885 662.51 221.219C662.448 221.552 662.417 221.917 662.417 222.312ZM678.51 217.062H681.698V227.896C681.698 228.937 681.458 229.819 680.979 230.542C680.5 231.271 679.83 231.823 678.969 232.198C678.115 232.58 677.115 232.771 675.969 232.771C675.462 232.771 674.944 232.705 674.417 232.573C673.889 232.448 673.396 232.26 672.938 232.01C672.479 231.76 672.094 231.451 671.781 231.083L673.25 229.021C673.535 229.34 673.892 229.611 674.323 229.833C674.753 230.062 675.26 230.177 675.844 230.177C676.351 230.177 676.774 230.087 677.115 229.906C677.462 229.726 677.726 229.462 677.906 229.115C678.087 228.774 678.177 228.361 678.177 227.875V219.729L678.51 217.062ZM671.021 222.833V222.615C671.021 221.76 671.125 220.983 671.333 220.281C671.549 219.573 671.854 218.965 672.25 218.458C672.653 217.944 673.139 217.549 673.708 217.271C674.278 216.993 674.92 216.854 675.635 216.854C676.406 216.854 677.038 217.003 677.531 217.302C678.031 217.594 678.431 218.003 678.729 218.531C679.035 219.059 679.271 219.677 679.438 220.385C679.611 221.087 679.757 221.844 679.875 222.656V222.917C679.757 223.681 679.594 224.403 679.385 225.083C679.184 225.757 678.92 226.354 678.594 226.875C678.267 227.396 677.858 227.806 677.365 228.104C676.878 228.396 676.295 228.542 675.615 228.542C674.906 228.542 674.267 228.399 673.698 228.115C673.135 227.83 672.653 227.431 672.25 226.917C671.854 226.403 671.549 225.799 671.333 225.104C671.125 224.41 671.021 223.653 671.021 222.833ZM674.531 222.615V222.833C674.531 223.257 674.569 223.649 674.646 224.01C674.729 224.372 674.854 224.691 675.021 224.969C675.188 225.24 675.392 225.451 675.635 225.604C675.885 225.757 676.177 225.833 676.51 225.833C677.017 225.833 677.427 225.726 677.74 225.51C678.052 225.295 678.278 224.99 678.417 224.594C678.556 224.198 678.615 223.733 678.594 223.198V222.375C678.608 221.917 678.576 221.514 678.5 221.167C678.424 220.812 678.302 220.517 678.135 220.281C677.976 220.045 677.76 219.868 677.49 219.75C677.226 219.625 676.906 219.562 676.531 219.562C676.205 219.562 675.917 219.639 675.667 219.792C675.417 219.944 675.208 220.16 675.042 220.437C674.875 220.708 674.747 221.031 674.656 221.406C674.573 221.774 674.531 222.177 674.531 222.615ZM683.281 222.812V222.594C683.281 221.767 683.399 221.007 683.635 220.312C683.872 219.611 684.219 219.003 684.677 218.49C685.135 217.976 685.701 217.576 686.375 217.292C687.049 217 687.826 216.854 688.708 216.854C689.597 216.854 690.378 217 691.052 217.292C691.733 217.576 692.302 217.976 692.76 218.49C693.219 219.003 693.566 219.611 693.802 220.312C694.038 221.007 694.156 221.767 694.156 222.594V222.812C694.156 223.632 694.038 224.392 693.802 225.094C693.566 225.788 693.219 226.396 692.76 226.917C692.302 227.431 691.736 227.83 691.063 228.115C690.389 228.399 689.611 228.542 688.729 228.542C687.847 228.542 687.066 228.399 686.385 228.115C685.705 227.83 685.135 227.431 684.677 226.917C684.219 226.396 683.872 225.788 683.635 225.094C683.399 224.392 683.281 223.632 683.281 222.812ZM686.792 222.594V222.812C686.792 223.236 686.823 223.632 686.885 224C686.948 224.368 687.052 224.691 687.198 224.969C687.344 225.24 687.542 225.451 687.792 225.604C688.042 225.757 688.354 225.833 688.729 225.833C689.097 225.833 689.403 225.757 689.646 225.604C689.896 225.451 690.094 225.24 690.24 224.969C690.385 224.691 690.49 224.368 690.552 224C690.615 223.632 690.646 223.236 690.646 222.812V222.594C690.646 222.184 690.615 221.799 690.552 221.437C690.49 221.069 690.385 220.747 690.24 220.469C690.094 220.184 689.896 219.962 689.646 219.802C689.396 219.642 689.083 219.562 688.708 219.562C688.34 219.562 688.031 219.642 687.781 219.802C687.538 219.962 687.344 220.184 687.198 220.469C687.052 220.747 686.948 221.069 686.885 221.437C686.823 221.799 686.792 222.184 686.792 222.594ZM700.813 228.333H697.448L697.469 225.521H700.813C701.507 225.521 702.094 225.354 702.573 225.021C703.059 224.687 703.427 224.191 703.677 223.531C703.934 222.865 704.063 222.045 704.063 221.073V220.417C704.063 219.687 703.99 219.049 703.844 218.5C703.705 217.944 703.497 217.483 703.219 217.115C702.941 216.74 702.594 216.458 702.177 216.271C701.767 216.083 701.295 215.99 700.76 215.99H697.385V213.167H700.76C701.788 213.167 702.729 213.344 703.583 213.698C704.444 214.045 705.188 214.545 705.813 215.198C706.444 215.844 706.931 216.611 707.271 217.5C707.618 218.382 707.792 219.361 707.792 220.437V221.073C707.792 222.142 707.618 223.122 707.271 224.01C706.931 224.899 706.448 225.667 705.823 226.312C705.198 226.958 704.458 227.458 703.604 227.812C702.757 228.16 701.826 228.333 700.813 228.333ZM699.542 213.167V228.333H695.885V213.167H699.542ZM715.885 221.885H711.979L711.958 219.49H715.125C715.694 219.49 716.149 219.427 716.49 219.302C716.83 219.17 717.076 218.979 717.229 218.729C717.389 218.479 717.469 218.167 717.469 217.792C717.469 217.361 717.389 217.014 717.229 216.75C717.069 216.486 716.816 216.295 716.469 216.177C716.128 216.052 715.688 215.99 715.146 215.99H713.354V228.333H709.698V213.167H715.146C716.083 213.167 716.92 213.253 717.656 213.427C718.392 213.594 719.017 213.851 719.531 214.198C720.052 214.545 720.448 214.983 720.719 215.51C720.99 216.031 721.125 216.646 721.125 217.354C721.125 217.972 720.993 218.552 720.729 219.094C720.465 219.635 720.024 220.076 719.406 220.417C718.795 220.75 717.958 220.924 716.896 220.937L715.885 221.885ZM715.74 228.333H711.094L712.344 225.521H715.74C716.24 225.521 716.639 225.444 716.938 225.292C717.243 225.132 717.462 224.924 717.594 224.667C717.733 224.403 717.802 224.111 717.802 223.792C717.802 223.403 717.736 223.066 717.604 222.781C717.479 222.497 717.278 222.278 717 222.125C716.722 221.965 716.351 221.885 715.885 221.885H712.813L712.833 219.49H716.51L717.365 220.448C718.378 220.406 719.181 220.549 719.771 220.875C720.368 221.201 720.795 221.632 721.052 222.167C721.309 222.701 721.438 223.26 721.438 223.844C721.438 224.837 721.222 225.667 720.792 226.333C720.368 227 719.733 227.5 718.885 227.833C718.038 228.167 716.99 228.333 715.74 228.333Z" fill="white"/>
<rect x="803" y="196.333" width="208" height="49.3333" rx="4.66667" fill="#888888" stroke="#888888" stroke-width="4"/>
<path d="M882.938 213.167V228.333H879.281V213.167H882.938ZM887.5 213.167V215.99H874.823V213.167H887.5ZM891.74 219.854V228.333H888.229V217.062H891.51L891.74 219.854ZM895.073 216.979L895.01 220.24C894.872 220.226 894.684 220.208 894.448 220.187C894.212 220.167 894.014 220.156 893.854 220.156C893.444 220.156 893.09 220.205 892.792 220.302C892.5 220.392 892.257 220.531 892.063 220.719C891.875 220.899 891.736 221.128 891.646 221.406C891.563 221.684 891.524 222.007 891.531 222.375L890.896 221.958C890.896 221.201 890.969 220.514 891.115 219.896C891.267 219.271 891.483 218.733 891.76 218.281C892.038 217.823 892.375 217.472 892.771 217.229C893.167 216.979 893.611 216.854 894.104 216.854C894.278 216.854 894.448 216.865 894.615 216.885C894.788 216.906 894.941 216.937 895.073 216.979ZM902.865 225.594V217.062H906.385V228.333H903.094L902.865 225.594ZM903.198 223.302L904.115 223.281C904.115 224.038 904.024 224.74 903.844 225.385C903.663 226.024 903.396 226.58 903.042 227.052C902.694 227.524 902.264 227.892 901.75 228.156C901.243 228.413 900.656 228.542 899.99 228.542C899.434 228.542 898.924 228.465 898.458 228.312C898 228.153 897.604 227.906 897.271 227.573C896.938 227.233 896.677 226.799 896.49 226.271C896.309 225.736 896.219 225.097 896.219 224.354V217.062H899.729V224.375C899.729 224.625 899.76 224.84 899.823 225.021C899.885 225.201 899.976 225.354 900.094 225.479C900.212 225.597 900.358 225.687 900.531 225.75C900.712 225.806 900.917 225.833 901.146 225.833C901.674 225.833 902.087 225.722 902.385 225.5C902.684 225.278 902.892 224.976 903.01 224.594C903.135 224.212 903.198 223.781 903.198 223.302ZM912.625 228.333H909.094V216.146C909.094 215.271 909.271 214.535 909.625 213.937C909.979 213.34 910.479 212.889 911.125 212.583C911.771 212.271 912.535 212.115 913.417 212.115C913.722 212.115 914.01 212.135 914.281 212.177C914.552 212.219 914.816 212.271 915.073 212.333L915.083 214.917C914.958 214.882 914.83 214.858 914.698 214.844C914.566 214.83 914.403 214.823 914.208 214.823C913.868 214.823 913.58 214.875 913.344 214.979C913.108 215.076 912.927 215.226 912.802 215.427C912.684 215.622 912.625 215.861 912.625 216.146V228.333ZM914.813 217.062V219.5H907.469V217.062H914.813ZM919.698 228.333H916.177V216.354C916.177 215.437 916.375 214.667 916.771 214.042C917.167 213.41 917.74 212.931 918.49 212.604C919.24 212.278 920.142 212.115 921.198 212.115C921.656 212.115 922.229 212.128 922.917 212.156C923.604 212.177 924.299 212.205 925 212.24C925.701 212.267 926.295 212.299 926.781 212.333L925.365 215.156C924.747 215.059 924.135 214.979 923.531 214.917C922.934 214.854 922.337 214.823 921.74 214.823C921.309 214.823 920.941 214.882 920.635 215C920.33 215.118 920.097 215.292 919.938 215.521C919.778 215.743 919.698 216.021 919.698 216.354V228.333ZM923.25 228.333V212.333H926.781V228.333H923.25ZM921.896 217.062V219.5H914.542V217.062H921.896ZM934.385 228.542C933.469 228.542 932.649 228.399 931.927 228.115C931.205 227.823 930.594 227.424 930.094 226.917C929.601 226.41 929.222 225.826 928.958 225.167C928.701 224.507 928.573 223.809 928.573 223.073V222.677C928.573 221.851 928.688 221.087 928.917 220.385C929.146 219.677 929.486 219.059 929.938 218.531C930.389 218.003 930.955 217.594 931.635 217.302C932.316 217.003 933.108 216.854 934.01 216.854C934.809 216.854 935.524 216.983 936.156 217.24C936.788 217.497 937.323 217.865 937.76 218.344C938.205 218.823 938.542 219.403 938.771 220.083C939.007 220.764 939.125 221.528 939.125 222.375V223.802H929.917V221.604H935.698V221.333C935.705 220.958 935.639 220.639 935.5 220.375C935.368 220.111 935.174 219.91 934.917 219.771C934.66 219.632 934.347 219.562 933.979 219.562C933.597 219.562 933.281 219.646 933.031 219.812C932.788 219.979 932.597 220.208 932.458 220.5C932.326 220.785 932.233 221.115 932.177 221.49C932.122 221.865 932.094 222.26 932.094 222.677V223.073C932.094 223.49 932.149 223.868 932.26 224.208C932.378 224.549 932.545 224.84 932.76 225.083C932.983 225.319 933.247 225.503 933.552 225.635C933.865 225.767 934.219 225.833 934.615 225.833C935.094 225.833 935.566 225.743 936.031 225.562C936.497 225.382 936.896 225.083 937.229 224.667L938.823 226.562C938.594 226.889 938.267 227.205 937.844 227.51C937.427 227.816 936.927 228.066 936.344 228.26C935.76 228.448 935.108 228.542 934.385 228.542Z" fill="white"/>
</svg>
