<svg width="1363" height="167" viewBox="0 0 1363 167" fill="none" xmlns="http://www.w3.org/2000/svg">
<rect width="1363" height="167" rx="15" fill="#F0F0F0"/>
<path d="M0 15C0 6.71573 6.71573 0 15 0H37V167H15C6.71573 167 0 160.284 0 152V15Z" fill="#424241"/>
<path d="M99.6758 54.4375L103.695 40.9375H107.609L101.668 58H99.0898L99.6758 54.4375ZM95.9727 40.9375L99.9805 54.4375L100.59 58H97.9883L92.082 40.9375H95.9727ZM107.914 51.7891V51.543C107.914 50.6133 108.047 49.7578 108.312 48.9766C108.578 48.1875 108.965 47.5039 109.473 46.9258C109.98 46.3477 110.605 45.8984 111.348 45.5781C112.09 45.25 112.941 45.0859 113.902 45.0859C114.863 45.0859 115.719 45.25 116.469 45.5781C117.219 45.8984 117.848 46.3477 118.355 46.9258C118.871 47.5039 119.262 48.1875 119.527 48.9766C119.793 49.7578 119.926 50.6133 119.926 51.543V51.7891C119.926 52.7109 119.793 53.5664 119.527 54.3555C119.262 55.1367 118.871 55.8203 118.355 56.4062C117.848 56.9844 117.223 57.4336 116.48 57.7539C115.738 58.0742 114.887 58.2344 113.926 58.2344C112.965 58.2344 112.109 58.0742 111.359 57.7539C110.617 57.4336 109.988 56.9844 109.473 56.4062C108.965 55.8203 108.578 55.1367 108.312 54.3555C108.047 53.5664 107.914 52.7109 107.914 51.7891ZM111.289 51.543V51.7891C111.289 52.3203 111.336 52.8164 111.43 53.2773C111.523 53.7383 111.672 54.1445 111.875 54.4961C112.086 54.8398 112.359 55.1094 112.695 55.3047C113.031 55.5 113.441 55.5977 113.926 55.5977C114.395 55.5977 114.797 55.5 115.133 55.3047C115.469 55.1094 115.738 54.8398 115.941 54.4961C116.145 54.1445 116.293 53.7383 116.387 53.2773C116.488 52.8164 116.539 52.3203 116.539 51.7891V51.543C116.539 51.0273 116.488 50.543 116.387 50.0898C116.293 49.6289 116.141 49.2227 115.93 48.8711C115.727 48.5117 115.457 48.2305 115.121 48.0273C114.785 47.8242 114.379 47.7227 113.902 47.7227C113.426 47.7227 113.02 47.8242 112.684 48.0273C112.355 48.2305 112.086 48.5117 111.875 48.8711C111.672 49.2227 111.523 49.6289 111.43 50.0898C111.336 50.543 111.289 51.0273 111.289 51.543ZM128.211 45.3203V47.7109H120.828V45.3203H128.211ZM122.656 42.1914H126.031V54.1797C126.031 54.5469 126.078 54.8281 126.172 55.0234C126.273 55.2188 126.422 55.3555 126.617 55.4336C126.812 55.5039 127.059 55.5391 127.355 55.5391C127.566 55.5391 127.754 55.5312 127.918 55.5156C128.09 55.4922 128.234 55.4688 128.352 55.4453L128.363 57.9297C128.074 58.0234 127.762 58.0977 127.426 58.1523C127.09 58.207 126.719 58.2344 126.312 58.2344C125.57 58.2344 124.922 58.1133 124.367 57.8711C123.82 57.6211 123.398 57.2227 123.102 56.6758C122.805 56.1289 122.656 55.4102 122.656 54.5195V42.1914ZM135.969 58.2344C134.984 58.2344 134.102 58.0781 133.32 57.7656C132.539 57.4453 131.875 57.0039 131.328 56.4414C130.789 55.8789 130.375 55.2266 130.086 54.4844C129.797 53.7344 129.652 52.9375 129.652 52.0938V51.625C129.652 50.6641 129.789 49.7852 130.062 48.9883C130.336 48.1914 130.727 47.5 131.234 46.9141C131.75 46.3281 132.375 45.8789 133.109 45.5664C133.844 45.2461 134.672 45.0859 135.594 45.0859C136.492 45.0859 137.289 45.2344 137.984 45.5312C138.68 45.8281 139.262 46.25 139.73 46.7969C140.207 47.3438 140.566 48 140.809 48.7656C141.051 49.5234 141.172 50.3672 141.172 51.2969V52.7031H131.094V50.4531H137.855V50.1953C137.855 49.7266 137.77 49.3086 137.598 48.9414C137.434 48.5664 137.184 48.2695 136.848 48.0508C136.512 47.832 136.082 47.7227 135.559 47.7227C135.113 47.7227 134.73 47.8203 134.41 48.0156C134.09 48.2109 133.828 48.4844 133.625 48.8359C133.43 49.1875 133.281 49.6016 133.18 50.0781C133.086 50.5469 133.039 51.0625 133.039 51.625V52.0938C133.039 52.6016 133.109 53.0703 133.25 53.5C133.398 53.9297 133.605 54.3008 133.871 54.6133C134.145 54.9258 134.473 55.168 134.855 55.3398C135.246 55.5117 135.688 55.5977 136.18 55.5977C136.789 55.5977 137.355 55.4805 137.879 55.2461C138.41 55.0039 138.867 54.6406 139.25 54.1562L140.891 55.9375C140.625 56.3203 140.262 56.6875 139.801 57.0391C139.348 57.3906 138.801 57.6797 138.16 57.9062C137.52 58.125 136.789 58.2344 135.969 58.2344ZM159.172 52.3398H162.676C162.605 53.4883 162.289 54.5078 161.727 55.3984C161.172 56.2891 160.395 56.9844 159.395 57.4844C158.402 57.9844 157.207 58.2344 155.809 58.2344C154.715 58.2344 153.734 58.0469 152.867 57.6719C152 57.2891 151.258 56.7422 150.641 56.0312C150.031 55.3203 149.566 54.4609 149.246 53.4531C148.926 52.4453 148.766 51.3164 148.766 50.0664V48.8828C148.766 47.6328 148.93 46.5039 149.258 45.4961C149.594 44.4805 150.07 43.6172 150.688 42.9062C151.312 42.1953 152.059 41.6484 152.926 41.2656C153.793 40.8828 154.762 40.6914 155.832 40.6914C157.254 40.6914 158.453 40.9492 159.43 41.4648C160.414 41.9805 161.176 42.6914 161.715 43.5977C162.262 44.5039 162.59 45.5352 162.699 46.6914H159.184C159.145 46.0039 159.008 45.4219 158.773 44.9453C158.539 44.4609 158.184 44.0977 157.707 43.8555C157.238 43.6055 156.613 43.4805 155.832 43.4805C155.246 43.4805 154.734 43.5898 154.297 43.8086C153.859 44.0273 153.492 44.3594 153.195 44.8047C152.898 45.25 152.676 45.8125 152.527 46.4922C152.387 47.1641 152.316 47.9531 152.316 48.8594V50.0664C152.316 50.9492 152.383 51.7266 152.516 52.3984C152.648 53.0625 152.852 53.625 153.125 54.0859C153.406 54.5391 153.766 54.8828 154.203 55.1172C154.648 55.3438 155.184 55.457 155.809 55.457C156.543 55.457 157.148 55.3398 157.625 55.1055C158.102 54.8711 158.465 54.5234 158.715 54.0625C158.973 53.6016 159.125 53.0273 159.172 52.3398ZM168.066 40V58H164.691V40H168.066ZM167.586 51.2148H166.66C166.668 50.332 166.785 49.5195 167.012 48.7773C167.238 48.0273 167.562 47.3789 167.984 46.832C168.406 46.2773 168.91 45.8477 169.496 45.543C170.09 45.2383 170.746 45.0859 171.465 45.0859C172.09 45.0859 172.656 45.1758 173.164 45.3555C173.68 45.5273 174.121 45.8086 174.488 46.1992C174.863 46.582 175.152 47.0859 175.355 47.7109C175.559 48.3359 175.66 49.0938 175.66 49.9844V58H172.262V49.9609C172.262 49.3984 172.18 48.957 172.016 48.6367C171.859 48.3086 171.629 48.0781 171.324 47.9453C171.027 47.8047 170.66 47.7344 170.223 47.7344C169.738 47.7344 169.324 47.8242 168.98 48.0039C168.645 48.1836 168.375 48.4336 168.172 48.7539C167.969 49.0664 167.82 49.4336 167.727 49.8555C167.633 50.2773 167.586 50.7305 167.586 51.2148ZM185.07 55.1406V49.4922C185.07 49.0859 185.004 48.7383 184.871 48.4492C184.738 48.1523 184.531 47.9219 184.25 47.7578C183.977 47.5938 183.621 47.5117 183.184 47.5117C182.809 47.5117 182.484 47.5781 182.211 47.7109C181.938 47.8359 181.727 48.0195 181.578 48.2617C181.43 48.4961 181.355 48.7734 181.355 49.0938H177.98C177.98 48.5547 178.105 48.043 178.355 47.5586C178.605 47.0742 178.969 46.6484 179.445 46.2812C179.922 45.9062 180.488 45.6133 181.145 45.4023C181.809 45.1914 182.551 45.0859 183.371 45.0859C184.355 45.0859 185.23 45.25 185.996 45.5781C186.762 45.9062 187.363 46.3984 187.801 47.0547C188.246 47.7109 188.469 48.5312 188.469 49.5156V54.9414C188.469 55.6367 188.512 56.207 188.598 56.6523C188.684 57.0898 188.809 57.4727 188.973 57.8008V58H185.562C185.398 57.6562 185.273 57.2266 185.188 56.7109C185.109 56.1875 185.07 55.6641 185.07 55.1406ZM185.516 50.2773L185.539 52.1875H183.652C183.207 52.1875 182.82 52.2383 182.492 52.3398C182.164 52.4414 181.895 52.5859 181.684 52.7734C181.473 52.9531 181.316 53.1641 181.215 53.4062C181.121 53.6484 181.074 53.9141 181.074 54.2031C181.074 54.4922 181.141 54.7539 181.273 54.9883C181.406 55.2148 181.598 55.3945 181.848 55.5273C182.098 55.6523 182.391 55.7148 182.727 55.7148C183.234 55.7148 183.676 55.6133 184.051 55.4102C184.426 55.207 184.715 54.957 184.918 54.6602C185.129 54.3633 185.238 54.082 185.246 53.8164L186.137 55.2461C186.012 55.5664 185.84 55.8984 185.621 56.2422C185.41 56.5859 185.141 56.9102 184.812 57.2148C184.484 57.5117 184.09 57.7578 183.629 57.9531C183.168 58.1406 182.621 58.2344 181.988 58.2344C181.184 58.2344 180.453 58.0742 179.797 57.7539C179.148 57.4258 178.633 56.9766 178.25 56.4062C177.875 55.8281 177.688 55.1719 177.688 54.4375C177.688 53.7734 177.812 53.1836 178.062 52.668C178.312 52.1523 178.68 51.7188 179.164 51.3672C179.656 51.0078 180.27 50.7383 181.004 50.5586C181.738 50.3711 182.59 50.2773 183.559 50.2773H185.516ZM194.633 45.3203V58H191.246V45.3203H194.633ZM191.035 42.0156C191.035 41.5234 191.207 41.1172 191.551 40.7969C191.895 40.4766 192.355 40.3164 192.934 40.3164C193.504 40.3164 193.961 40.4766 194.305 40.7969C194.656 41.1172 194.832 41.5234 194.832 42.0156C194.832 42.5078 194.656 42.9141 194.305 43.2344C193.961 43.5547 193.504 43.7148 192.934 43.7148C192.355 43.7148 191.895 43.5547 191.551 43.2344C191.207 42.9141 191.035 42.5078 191.035 42.0156ZM200.727 48.0273V58H197.352V45.3203H200.516L200.727 48.0273ZM200.234 51.2148H199.32C199.32 50.2773 199.441 49.4336 199.684 48.6836C199.926 47.9258 200.266 47.2812 200.703 46.75C201.141 46.2109 201.66 45.8008 202.262 45.5195C202.871 45.2305 203.551 45.0859 204.301 45.0859C204.895 45.0859 205.438 45.1719 205.93 45.3438C206.422 45.5156 206.844 45.7891 207.195 46.1641C207.555 46.5391 207.828 47.0352 208.016 47.6523C208.211 48.2695 208.309 49.0234 208.309 49.9141V58H204.91V49.9023C204.91 49.3398 204.832 48.9023 204.676 48.5898C204.52 48.2773 204.289 48.0586 203.984 47.9336C203.688 47.8008 203.32 47.7344 202.883 47.7344C202.43 47.7344 202.035 47.8242 201.699 48.0039C201.371 48.1836 201.098 48.4336 200.879 48.7539C200.668 49.0664 200.508 49.4336 200.398 49.8555C200.289 50.2773 200.234 50.7305 200.234 51.2148Z" fill="#888888"/>
<path d="M107.205 107.146H99.251V101.191H107.205C108.289 101.191 109.168 101.008 109.842 100.642C110.516 100.275 111.006 99.77 111.314 99.1255C111.636 98.4663 111.797 97.7266 111.797 96.9062C111.797 96.0273 111.636 95.2144 111.314 94.4673C111.006 93.7202 110.516 93.1196 109.842 92.6655C109.168 92.1968 108.289 91.9624 107.205 91.9624H102.151V118H94.439V86.0078H107.205C109.769 86.0078 111.973 86.4766 113.819 87.4141C115.679 88.3516 117.107 89.6406 118.104 91.2812C119.1 92.9072 119.598 94.7676 119.598 96.8623C119.598 98.9277 119.1 100.729 118.104 102.268C117.107 103.806 115.679 105.007 113.819 105.871C111.973 106.721 109.769 107.146 107.205 107.146ZM130.87 100.114V118H123.465V94.2256H130.386L130.87 100.114ZM137.901 94.0498L137.769 100.927C137.476 100.898 137.081 100.861 136.583 100.817C136.084 100.773 135.667 100.751 135.33 100.751C134.466 100.751 133.719 100.854 133.089 101.059C132.474 101.25 131.961 101.542 131.551 101.938C131.155 102.319 130.862 102.802 130.672 103.388C130.496 103.974 130.416 104.655 130.43 105.432L129.09 104.553C129.09 102.956 129.244 101.506 129.551 100.202C129.874 98.8838 130.328 97.7485 130.914 96.7964C131.5 95.8296 132.21 95.0898 133.045 94.5771C133.88 94.0498 134.817 93.7861 135.857 93.7861C136.224 93.7861 136.583 93.8081 136.934 93.8521C137.3 93.896 137.623 93.9619 137.901 94.0498ZM138.736 106.354V105.893C138.736 104.15 138.985 102.546 139.483 101.081C139.981 99.6016 140.713 98.3198 141.68 97.2358C142.647 96.1519 143.841 95.3096 145.262 94.709C146.683 94.0938 148.323 93.7861 150.184 93.7861C152.059 93.7861 153.707 94.0938 155.127 94.709C156.563 95.3096 157.764 96.1519 158.731 97.2358C159.698 98.3198 160.43 99.6016 160.928 101.081C161.426 102.546 161.675 104.15 161.675 105.893V106.354C161.675 108.083 161.426 109.687 160.928 111.167C160.43 112.631 159.698 113.913 158.731 115.012C157.764 116.096 156.57 116.938 155.149 117.539C153.729 118.139 152.088 118.439 150.228 118.439C148.367 118.439 146.719 118.139 145.284 117.539C143.848 116.938 142.647 116.096 141.68 115.012C140.713 113.913 139.981 112.631 139.483 111.167C138.985 109.687 138.736 108.083 138.736 106.354ZM146.141 105.893V106.354C146.141 107.248 146.207 108.083 146.338 108.859C146.47 109.636 146.69 110.317 146.998 110.903C147.305 111.474 147.723 111.921 148.25 112.243C148.777 112.565 149.437 112.727 150.228 112.727C151.004 112.727 151.648 112.565 152.161 112.243C152.688 111.921 153.106 111.474 153.414 110.903C153.721 110.317 153.941 109.636 154.073 108.859C154.205 108.083 154.271 107.248 154.271 106.354V105.893C154.271 105.029 154.205 104.216 154.073 103.454C153.941 102.678 153.721 101.997 153.414 101.411C153.106 100.81 152.688 100.341 152.161 100.004C151.634 99.6675 150.975 99.499 150.184 99.499C149.407 99.499 148.755 99.6675 148.228 100.004C147.715 100.341 147.305 100.81 146.998 101.411C146.69 101.997 146.47 102.678 146.338 103.454C146.207 104.216 146.141 105.029 146.141 105.893ZM177.496 94.2256V99.3672H163.169V94.2256H177.496ZM166.18 88.3149H173.584V110.244C173.584 110.874 173.658 111.364 173.804 111.716C173.951 112.053 174.2 112.294 174.551 112.441C174.917 112.573 175.401 112.639 176.001 112.639C176.426 112.639 176.778 112.631 177.056 112.617C177.334 112.587 177.598 112.551 177.847 112.507V117.802C177.217 118.007 176.558 118.161 175.87 118.264C175.181 118.381 174.449 118.439 173.672 118.439C172.09 118.439 170.735 118.19 169.607 117.692C168.494 117.194 167.645 116.411 167.059 115.341C166.473 114.272 166.18 112.88 166.18 111.167V88.3149ZM178.858 106.354V105.893C178.858 104.15 179.107 102.546 179.605 101.081C180.103 99.6016 180.835 98.3198 181.802 97.2358C182.769 96.1519 183.963 95.3096 185.384 94.709C186.805 94.0938 188.445 93.7861 190.306 93.7861C192.181 93.7861 193.829 94.0938 195.25 94.709C196.685 95.3096 197.886 96.1519 198.853 97.2358C199.82 98.3198 200.552 99.6016 201.05 101.081C201.548 102.546 201.797 104.15 201.797 105.893V106.354C201.797 108.083 201.548 109.687 201.05 111.167C200.552 112.631 199.82 113.913 198.853 115.012C197.886 116.096 196.692 116.938 195.271 117.539C193.851 118.139 192.21 118.439 190.35 118.439C188.489 118.439 186.841 118.139 185.406 117.539C183.97 116.938 182.769 116.096 181.802 115.012C180.835 113.913 180.103 112.631 179.605 111.167C179.107 109.687 178.858 108.083 178.858 106.354ZM186.263 105.893V106.354C186.263 107.248 186.329 108.083 186.46 108.859C186.592 109.636 186.812 110.317 187.12 110.903C187.427 111.474 187.845 111.921 188.372 112.243C188.899 112.565 189.559 112.727 190.35 112.727C191.126 112.727 191.771 112.565 192.283 112.243C192.811 111.921 193.228 111.474 193.536 110.903C193.843 110.317 194.063 109.636 194.195 108.859C194.327 108.083 194.393 107.248 194.393 106.354V105.893C194.393 105.029 194.327 104.216 194.195 103.454C194.063 102.678 193.843 101.997 193.536 101.411C193.228 100.81 192.811 100.341 192.283 100.004C191.756 99.6675 191.097 99.499 190.306 99.499C189.529 99.499 188.877 99.6675 188.35 100.004C187.837 100.341 187.427 100.81 187.12 101.411C186.812 101.997 186.592 102.678 186.46 103.454C186.329 104.216 186.263 105.029 186.263 105.893ZM217.618 94.2256V99.3672H203.292V94.2256H217.618ZM206.302 88.3149H213.707V110.244C213.707 110.874 213.78 111.364 213.926 111.716C214.073 112.053 214.322 112.294 214.673 112.441C215.04 112.573 215.523 112.639 216.124 112.639C216.548 112.639 216.9 112.631 217.178 112.617C217.457 112.587 217.72 112.551 217.969 112.507V117.802C217.339 118.007 216.68 118.161 215.992 118.264C215.303 118.381 214.571 118.439 213.794 118.439C212.212 118.439 210.857 118.19 209.729 117.692C208.616 117.194 207.767 116.411 207.181 115.341C206.595 114.272 206.302 112.88 206.302 111.167V88.3149ZM227.857 115.209L234.009 94.2256H241.963L232.405 121.538C232.2 122.138 231.929 122.783 231.592 123.471C231.255 124.174 230.794 124.841 230.208 125.471C229.622 126.101 228.868 126.613 227.945 127.009C227.037 127.404 225.909 127.602 224.561 127.602C223.843 127.602 223.316 127.565 222.979 127.492C222.657 127.434 222.159 127.324 221.485 127.163V121.867C221.675 121.867 221.836 121.867 221.968 121.867C222.115 121.867 222.276 121.867 222.452 121.867C223.243 121.867 223.873 121.787 224.341 121.625C224.825 121.464 225.191 121.23 225.44 120.922C225.704 120.615 225.909 120.241 226.055 119.802L227.857 115.209ZM226.297 94.2256L230.977 110.859L231.79 118.703H226.824L218.365 94.2256H226.297ZM251.368 98.7959V127.141H243.963V94.2256H250.862L251.368 98.7959ZM265.958 105.827V106.289C265.958 108.017 265.76 109.621 265.364 111.101C264.969 112.58 264.383 113.869 263.606 114.968C262.83 116.066 261.863 116.923 260.706 117.539C259.563 118.139 258.238 118.439 256.729 118.439C255.308 118.439 254.085 118.125 253.06 117.495C252.034 116.865 251.177 115.993 250.489 114.88C249.8 113.767 249.244 112.492 248.819 111.057C248.394 109.621 248.057 108.105 247.808 106.508V105.915C248.057 104.201 248.394 102.612 248.819 101.147C249.244 99.6675 249.8 98.3784 250.489 97.2798C251.177 96.1812 252.027 95.3242 253.038 94.709C254.063 94.0938 255.286 93.7861 256.707 93.7861C258.216 93.7861 259.542 94.0718 260.684 94.6431C261.841 95.2144 262.808 96.0347 263.584 97.104C264.375 98.1587 264.969 99.4258 265.364 100.905C265.76 102.385 265.958 104.025 265.958 105.827ZM258.553 106.289V105.827C258.553 104.904 258.487 104.062 258.355 103.3C258.223 102.524 258.011 101.85 257.718 101.279C257.439 100.708 257.066 100.268 256.597 99.9604C256.128 99.6528 255.55 99.499 254.861 99.499C254.07 99.499 253.404 99.6235 252.862 99.8726C252.334 100.107 251.91 100.473 251.587 100.971C251.28 101.455 251.06 102.062 250.928 102.795C250.811 103.513 250.76 104.355 250.774 105.322V107.124C250.745 108.237 250.855 109.218 251.104 110.068C251.353 110.903 251.785 111.555 252.4 112.023C253.016 112.492 253.851 112.727 254.905 112.727C255.608 112.727 256.194 112.565 256.663 112.243C257.132 111.906 257.505 111.445 257.784 110.859C258.062 110.258 258.26 109.57 258.377 108.793C258.494 108.017 258.553 107.182 258.553 106.289ZM277.076 94.2256V118H269.649V94.2256H277.076ZM269.209 88.0952C269.209 87.0405 269.59 86.1763 270.352 85.5024C271.114 84.8286 272.103 84.4917 273.318 84.4917C274.534 84.4917 275.523 84.8286 276.285 85.5024C277.046 86.1763 277.427 87.0405 277.427 88.0952C277.427 89.1499 277.046 90.0142 276.285 90.688C275.523 91.3618 274.534 91.6987 273.318 91.6987C272.103 91.6987 271.114 91.3618 270.352 90.688C269.59 90.0142 269.209 89.1499 269.209 88.0952ZM288.919 99.3013V118H281.514V94.2256H288.458L288.919 99.3013ZM288.04 105.3L286.304 105.344C286.304 103.527 286.524 101.909 286.963 100.488C287.403 99.0522 288.025 97.8364 288.831 96.8403C289.637 95.8442 290.596 95.0898 291.709 94.5771C292.837 94.0498 294.09 93.7861 295.467 93.7861C296.565 93.7861 297.569 93.9473 298.477 94.2695C299.4 94.5918 300.191 95.1118 300.85 95.8296C301.524 96.5474 302.037 97.4995 302.388 98.686C302.754 99.8579 302.938 101.308 302.938 103.037V118H295.489V103.015C295.489 102.062 295.357 101.337 295.093 100.839C294.83 100.327 294.449 99.9751 293.951 99.7847C293.453 99.5942 292.845 99.499 292.127 99.499C291.365 99.499 290.721 99.6455 290.193 99.9385C289.666 100.231 289.241 100.642 288.919 101.169C288.611 101.682 288.384 102.29 288.238 102.993C288.106 103.696 288.04 104.465 288.04 105.3ZM321.988 94.2256H328.711V117.077C328.711 119.274 328.206 121.135 327.195 122.658C326.185 124.196 324.771 125.361 322.955 126.152C321.153 126.958 319.043 127.36 316.626 127.36C315.557 127.36 314.466 127.221 313.353 126.943C312.239 126.679 311.199 126.284 310.232 125.756C309.266 125.229 308.453 124.577 307.793 123.801L310.892 119.45C311.492 120.124 312.247 120.695 313.155 121.164C314.063 121.647 315.132 121.889 316.363 121.889C317.432 121.889 318.326 121.699 319.043 121.318C319.776 120.937 320.333 120.38 320.713 119.648C321.094 118.93 321.285 118.059 321.285 117.033V99.8506L321.988 94.2256ZM306.189 106.398V105.937C306.189 104.135 306.409 102.495 306.849 101.015C307.303 99.521 307.947 98.2393 308.782 97.1699C309.632 96.0859 310.657 95.251 311.858 94.665C313.06 94.0791 314.415 93.7861 315.923 93.7861C317.549 93.7861 318.882 94.1011 319.922 94.731C320.977 95.3462 321.819 96.2104 322.449 97.3237C323.094 98.437 323.592 99.7407 323.943 101.235C324.31 102.714 324.617 104.311 324.866 106.025V106.574C324.617 108.186 324.273 109.709 323.833 111.145C323.409 112.565 322.852 113.825 322.164 114.924C321.475 116.022 320.611 116.887 319.571 117.517C318.545 118.132 317.315 118.439 315.879 118.439C314.385 118.439 313.038 118.139 311.836 117.539C310.65 116.938 309.632 116.096 308.782 115.012C307.947 113.928 307.303 112.653 306.849 111.188C306.409 109.724 306.189 108.127 306.189 106.398ZM313.594 105.937V106.398C313.594 107.292 313.675 108.12 313.836 108.881C314.012 109.643 314.275 110.317 314.627 110.903C314.979 111.474 315.411 111.921 315.923 112.243C316.451 112.565 317.066 112.727 317.769 112.727C318.838 112.727 319.703 112.5 320.362 112.045C321.021 111.591 321.497 110.947 321.79 110.112C322.083 109.277 322.208 108.295 322.164 107.167V105.432C322.193 104.465 322.127 103.615 321.966 102.883C321.805 102.136 321.548 101.513 321.197 101.015C320.86 100.517 320.406 100.144 319.834 99.8945C319.278 99.6309 318.604 99.499 317.813 99.499C317.125 99.499 316.517 99.6602 315.989 99.9824C315.462 100.305 315.022 100.759 314.671 101.345C314.319 101.916 314.048 102.597 313.858 103.388C313.682 104.165 313.594 105.014 313.594 105.937Z" fill="#424241"/>
<path d="M1363 15C1363 6.71573 1356.28 0 1348 0H1134V167H1348C1356.28 167 1363 160.284 1363 152V15Z" fill="#1E2968"/>
<path fill-rule="evenodd" clip-rule="evenodd" d="M1203 49C1203 47.8954 1203.9 47 1205 47H1292.5C1293.6 47 1294.5 47.8954 1294.5 49V118.996C1294.5 120.101 1293.6 120.996 1292.5 120.996H1205C1203.9 120.996 1203 120.101 1203 118.996V49ZM1207 51V55.4945H1290.5V51H1207ZM1290.5 59.4945H1235.44V116.996H1290.5V59.4945ZM1231.44 116.996V59.4945H1207V116.996H1231.44Z" fill="white"/>
<path fill-rule="evenodd" clip-rule="evenodd" d="M1209.97 64.8004C1209.97 63.6958 1210.87 62.8004 1211.97 62.8004H1225.97C1227.08 62.8004 1227.97 63.6958 1227.97 64.8004V84.1956C1227.97 85.3001 1227.08 86.1956 1225.97 86.1956H1211.97C1210.87 86.1956 1209.97 85.3001 1209.97 84.1956V64.8004ZM1213.97 66.8004V82.1956H1223.97V66.8004H1213.97ZM1239.58 65.6964C1239.58 64.5918 1240.47 63.6964 1241.58 63.6964H1284.5C1285.61 63.6964 1286.5 64.5918 1286.5 65.6964V111.905C1286.5 113.01 1285.61 113.905 1284.5 113.905H1241.58C1240.47 113.905 1239.58 113.01 1239.58 111.905V65.6964ZM1243.58 67.6964V109.905H1282.5V67.6964H1243.58ZM1209.81 95.9363C1209.81 94.8317 1210.71 93.9363 1211.81 93.9363H1220.73C1221.84 93.9363 1222.73 94.8317 1222.73 95.9363C1222.73 97.0409 1221.84 97.9363 1220.73 97.9363H1211.81C1210.71 97.9363 1209.81 97.0409 1209.81 95.9363ZM1209.81 102.936C1209.81 101.832 1210.71 100.936 1211.81 100.936H1226.35C1227.46 100.936 1228.35 101.832 1228.35 102.936C1228.35 104.041 1227.46 104.936 1226.35 104.936H1211.81C1210.71 104.936 1209.81 104.041 1209.81 102.936ZM1209.81 109.936C1209.81 108.832 1210.71 107.936 1211.81 107.936H1220.73C1221.84 107.936 1222.73 108.832 1222.73 109.936C1222.73 111.041 1221.84 111.936 1220.73 111.936H1211.81C1210.71 111.936 1209.81 111.041 1209.81 109.936Z" fill="white"/>
</svg>
