<svg width="1363" height="167" viewBox="0 0 1363 167" fill="none" xmlns="http://www.w3.org/2000/svg">
<rect width="1363" height="167" rx="15" fill="#F0F0F0"/>
<path d="M0 15C0 6.71573 6.71573 0 15 0H37V167H15C6.71573 167 0 160.284 0 152V15Z" fill="#424241"/>
<path d="M99.6758 54.4375L103.695 40.9375H107.609L101.668 58H99.0898L99.6758 54.4375ZM95.9727 40.9375L99.9805 54.4375L100.59 58H97.9883L92.082 40.9375H95.9727ZM107.914 51.7891V51.543C107.914 50.6133 108.047 49.7578 108.312 48.9766C108.578 48.1875 108.965 47.5039 109.473 46.9258C109.98 46.3477 110.605 45.8984 111.348 45.5781C112.09 45.25 112.941 45.0859 113.902 45.0859C114.863 45.0859 115.719 45.25 116.469 45.5781C117.219 45.8984 117.848 46.3477 118.355 46.9258C118.871 47.5039 119.262 48.1875 119.527 48.9766C119.793 49.7578 119.926 50.6133 119.926 51.543V51.7891C119.926 52.7109 119.793 53.5664 119.527 54.3555C119.262 55.1367 118.871 55.8203 118.355 56.4062C117.848 56.9844 117.223 57.4336 116.48 57.7539C115.738 58.0742 114.887 58.2344 113.926 58.2344C112.965 58.2344 112.109 58.0742 111.359 57.7539C110.617 57.4336 109.988 56.9844 109.473 56.4062C108.965 55.8203 108.578 55.1367 108.312 54.3555C108.047 53.5664 107.914 52.7109 107.914 51.7891ZM111.289 51.543V51.7891C111.289 52.3203 111.336 52.8164 111.43 53.2773C111.523 53.7383 111.672 54.1445 111.875 54.4961C112.086 54.8398 112.359 55.1094 112.695 55.3047C113.031 55.5 113.441 55.5977 113.926 55.5977C114.395 55.5977 114.797 55.5 115.133 55.3047C115.469 55.1094 115.738 54.8398 115.941 54.4961C116.145 54.1445 116.293 53.7383 116.387 53.2773C116.488 52.8164 116.539 52.3203 116.539 51.7891V51.543C116.539 51.0273 116.488 50.543 116.387 50.0898C116.293 49.6289 116.141 49.2227 115.93 48.8711C115.727 48.5117 115.457 48.2305 115.121 48.0273C114.785 47.8242 114.379 47.7227 113.902 47.7227C113.426 47.7227 113.02 47.8242 112.684 48.0273C112.355 48.2305 112.086 48.5117 111.875 48.8711C111.672 49.2227 111.523 49.6289 111.43 50.0898C111.336 50.543 111.289 51.0273 111.289 51.543ZM128.211 45.3203V47.7109H120.828V45.3203H128.211ZM122.656 42.1914H126.031V54.1797C126.031 54.5469 126.078 54.8281 126.172 55.0234C126.273 55.2188 126.422 55.3555 126.617 55.4336C126.812 55.5039 127.059 55.5391 127.355 55.5391C127.566 55.5391 127.754 55.5312 127.918 55.5156C128.09 55.4922 128.234 55.4688 128.352 55.4453L128.363 57.9297C128.074 58.0234 127.762 58.0977 127.426 58.1523C127.09 58.207 126.719 58.2344 126.312 58.2344C125.57 58.2344 124.922 58.1133 124.367 57.8711C123.82 57.6211 123.398 57.2227 123.102 56.6758C122.805 56.1289 122.656 55.4102 122.656 54.5195V42.1914ZM135.969 58.2344C134.984 58.2344 134.102 58.0781 133.32 57.7656C132.539 57.4453 131.875 57.0039 131.328 56.4414C130.789 55.8789 130.375 55.2266 130.086 54.4844C129.797 53.7344 129.652 52.9375 129.652 52.0938V51.625C129.652 50.6641 129.789 49.7852 130.062 48.9883C130.336 48.1914 130.727 47.5 131.234 46.9141C131.75 46.3281 132.375 45.8789 133.109 45.5664C133.844 45.2461 134.672 45.0859 135.594 45.0859C136.492 45.0859 137.289 45.2344 137.984 45.5312C138.68 45.8281 139.262 46.25 139.73 46.7969C140.207 47.3438 140.566 48 140.809 48.7656C141.051 49.5234 141.172 50.3672 141.172 51.2969V52.7031H131.094V50.4531H137.855V50.1953C137.855 49.7266 137.77 49.3086 137.598 48.9414C137.434 48.5664 137.184 48.2695 136.848 48.0508C136.512 47.832 136.082 47.7227 135.559 47.7227C135.113 47.7227 134.73 47.8203 134.41 48.0156C134.09 48.2109 133.828 48.4844 133.625 48.8359C133.43 49.1875 133.281 49.6016 133.18 50.0781C133.086 50.5469 133.039 51.0625 133.039 51.625V52.0938C133.039 52.6016 133.109 53.0703 133.25 53.5C133.398 53.9297 133.605 54.3008 133.871 54.6133C134.145 54.9258 134.473 55.168 134.855 55.3398C135.246 55.5117 135.688 55.5977 136.18 55.5977C136.789 55.5977 137.355 55.4805 137.879 55.2461C138.41 55.0039 138.867 54.6406 139.25 54.1562L140.891 55.9375C140.625 56.3203 140.262 56.6875 139.801 57.0391C139.348 57.3906 138.801 57.6797 138.16 57.9062C137.52 58.125 136.789 58.2344 135.969 58.2344ZM159.172 52.3398H162.676C162.605 53.4883 162.289 54.5078 161.727 55.3984C161.172 56.2891 160.395 56.9844 159.395 57.4844C158.402 57.9844 157.207 58.2344 155.809 58.2344C154.715 58.2344 153.734 58.0469 152.867 57.6719C152 57.2891 151.258 56.7422 150.641 56.0312C150.031 55.3203 149.566 54.4609 149.246 53.4531C148.926 52.4453 148.766 51.3164 148.766 50.0664V48.8828C148.766 47.6328 148.93 46.5039 149.258 45.4961C149.594 44.4805 150.07 43.6172 150.688 42.9062C151.312 42.1953 152.059 41.6484 152.926 41.2656C153.793 40.8828 154.762 40.6914 155.832 40.6914C157.254 40.6914 158.453 40.9492 159.43 41.4648C160.414 41.9805 161.176 42.6914 161.715 43.5977C162.262 44.5039 162.59 45.5352 162.699 46.6914H159.184C159.145 46.0039 159.008 45.4219 158.773 44.9453C158.539 44.4609 158.184 44.0977 157.707 43.8555C157.238 43.6055 156.613 43.4805 155.832 43.4805C155.246 43.4805 154.734 43.5898 154.297 43.8086C153.859 44.0273 153.492 44.3594 153.195 44.8047C152.898 45.25 152.676 45.8125 152.527 46.4922C152.387 47.1641 152.316 47.9531 152.316 48.8594V50.0664C152.316 50.9492 152.383 51.7266 152.516 52.3984C152.648 53.0625 152.852 53.625 153.125 54.0859C153.406 54.5391 153.766 54.8828 154.203 55.1172C154.648 55.3438 155.184 55.457 155.809 55.457C156.543 55.457 157.148 55.3398 157.625 55.1055C158.102 54.8711 158.465 54.5234 158.715 54.0625C158.973 53.6016 159.125 53.0273 159.172 52.3398ZM168.066 40V58H164.691V40H168.066ZM167.586 51.2148H166.66C166.668 50.332 166.785 49.5195 167.012 48.7773C167.238 48.0273 167.562 47.3789 167.984 46.832C168.406 46.2773 168.91 45.8477 169.496 45.543C170.09 45.2383 170.746 45.0859 171.465 45.0859C172.09 45.0859 172.656 45.1758 173.164 45.3555C173.68 45.5273 174.121 45.8086 174.488 46.1992C174.863 46.582 175.152 47.0859 175.355 47.7109C175.559 48.3359 175.66 49.0938 175.66 49.9844V58H172.262V49.9609C172.262 49.3984 172.18 48.957 172.016 48.6367C171.859 48.3086 171.629 48.0781 171.324 47.9453C171.027 47.8047 170.66 47.7344 170.223 47.7344C169.738 47.7344 169.324 47.8242 168.98 48.0039C168.645 48.1836 168.375 48.4336 168.172 48.7539C167.969 49.0664 167.82 49.4336 167.727 49.8555C167.633 50.2773 167.586 50.7305 167.586 51.2148ZM185.07 55.1406V49.4922C185.07 49.0859 185.004 48.7383 184.871 48.4492C184.738 48.1523 184.531 47.9219 184.25 47.7578C183.977 47.5938 183.621 47.5117 183.184 47.5117C182.809 47.5117 182.484 47.5781 182.211 47.7109C181.938 47.8359 181.727 48.0195 181.578 48.2617C181.43 48.4961 181.355 48.7734 181.355 49.0938H177.98C177.98 48.5547 178.105 48.043 178.355 47.5586C178.605 47.0742 178.969 46.6484 179.445 46.2812C179.922 45.9062 180.488 45.6133 181.145 45.4023C181.809 45.1914 182.551 45.0859 183.371 45.0859C184.355 45.0859 185.23 45.25 185.996 45.5781C186.762 45.9062 187.363 46.3984 187.801 47.0547C188.246 47.7109 188.469 48.5312 188.469 49.5156V54.9414C188.469 55.6367 188.512 56.207 188.598 56.6523C188.684 57.0898 188.809 57.4727 188.973 57.8008V58H185.562C185.398 57.6562 185.273 57.2266 185.188 56.7109C185.109 56.1875 185.07 55.6641 185.07 55.1406ZM185.516 50.2773L185.539 52.1875H183.652C183.207 52.1875 182.82 52.2383 182.492 52.3398C182.164 52.4414 181.895 52.5859 181.684 52.7734C181.473 52.9531 181.316 53.1641 181.215 53.4062C181.121 53.6484 181.074 53.9141 181.074 54.2031C181.074 54.4922 181.141 54.7539 181.273 54.9883C181.406 55.2148 181.598 55.3945 181.848 55.5273C182.098 55.6523 182.391 55.7148 182.727 55.7148C183.234 55.7148 183.676 55.6133 184.051 55.4102C184.426 55.207 184.715 54.957 184.918 54.6602C185.129 54.3633 185.238 54.082 185.246 53.8164L186.137 55.2461C186.012 55.5664 185.84 55.8984 185.621 56.2422C185.41 56.5859 185.141 56.9102 184.812 57.2148C184.484 57.5117 184.09 57.7578 183.629 57.9531C183.168 58.1406 182.621 58.2344 181.988 58.2344C181.184 58.2344 180.453 58.0742 179.797 57.7539C179.148 57.4258 178.633 56.9766 178.25 56.4062C177.875 55.8281 177.688 55.1719 177.688 54.4375C177.688 53.7734 177.812 53.1836 178.062 52.668C178.312 52.1523 178.68 51.7188 179.164 51.3672C179.656 51.0078 180.27 50.7383 181.004 50.5586C181.738 50.3711 182.59 50.2773 183.559 50.2773H185.516ZM194.633 45.3203V58H191.246V45.3203H194.633ZM191.035 42.0156C191.035 41.5234 191.207 41.1172 191.551 40.7969C191.895 40.4766 192.355 40.3164 192.934 40.3164C193.504 40.3164 193.961 40.4766 194.305 40.7969C194.656 41.1172 194.832 41.5234 194.832 42.0156C194.832 42.5078 194.656 42.9141 194.305 43.2344C193.961 43.5547 193.504 43.7148 192.934 43.7148C192.355 43.7148 191.895 43.5547 191.551 43.2344C191.207 42.9141 191.035 42.5078 191.035 42.0156ZM200.727 48.0273V58H197.352V45.3203H200.516L200.727 48.0273ZM200.234 51.2148H199.32C199.32 50.2773 199.441 49.4336 199.684 48.6836C199.926 47.9258 200.266 47.2812 200.703 46.75C201.141 46.2109 201.66 45.8008 202.262 45.5195C202.871 45.2305 203.551 45.0859 204.301 45.0859C204.895 45.0859 205.438 45.1719 205.93 45.3438C206.422 45.5156 206.844 45.7891 207.195 46.1641C207.555 46.5391 207.828 47.0352 208.016 47.6523C208.211 48.2695 208.309 49.0234 208.309 49.9141V58H204.91V49.9023C204.91 49.3398 204.832 48.9023 204.676 48.5898C204.52 48.2773 204.289 48.0586 203.984 47.9336C203.688 47.8008 203.32 47.7344 202.883 47.7344C202.43 47.7344 202.035 47.8242 201.699 48.0039C201.371 48.1836 201.098 48.4336 200.879 48.7539C200.668 49.0664 200.508 49.4336 200.398 49.8555C200.289 50.2773 200.234 50.7305 200.234 51.2148Z" fill="#888888"/>
<path d="M102.635 86.0078V118H94.9443V86.0078H102.635ZM115.181 99.2573V118H107.776V94.2256H114.72L115.181 99.2573ZM114.28 105.3L112.588 105.344C112.588 103.674 112.786 102.136 113.182 100.729C113.577 99.3232 114.163 98.1001 114.939 97.0601C115.716 96.02 116.668 95.2144 117.796 94.6431C118.938 94.0718 120.257 93.7861 121.751 93.7861C122.791 93.7861 123.736 93.9473 124.585 94.2695C125.435 94.5771 126.167 95.0679 126.783 95.7417C127.398 96.4009 127.867 97.2651 128.189 98.3345C128.526 99.3892 128.694 100.656 128.694 102.136V118H121.29V103.081C121.29 102.07 121.172 101.308 120.938 100.795C120.718 100.283 120.396 99.9385 119.971 99.7627C119.546 99.5869 119.026 99.499 118.411 99.499C117.767 99.499 117.188 99.6455 116.675 99.9385C116.163 100.231 115.723 100.642 115.357 101.169C115.005 101.682 114.734 102.29 114.544 102.993C114.368 103.696 114.28 104.465 114.28 105.3ZM127.859 105.3L125.794 105.344C125.794 103.674 125.977 102.136 126.343 100.729C126.724 99.3232 127.288 98.1001 128.035 97.0601C128.797 96.02 129.742 95.2144 130.87 94.6431C131.998 94.0718 133.309 93.7861 134.803 93.7861C135.887 93.7861 136.883 93.9473 137.791 94.2695C138.699 94.5918 139.483 95.1118 140.142 95.8296C140.801 96.5474 141.314 97.4995 141.68 98.686C142.046 99.8579 142.229 101.308 142.229 103.037V118H134.803V103.037C134.803 102.055 134.686 101.315 134.451 100.817C134.231 100.305 133.909 99.9604 133.484 99.7847C133.06 99.5942 132.554 99.499 131.968 99.499C131.265 99.499 130.657 99.6455 130.145 99.9385C129.632 100.231 129.2 100.642 128.848 101.169C128.511 101.682 128.262 102.29 128.101 102.993C127.94 103.696 127.859 104.465 127.859 105.3ZM153.941 98.7959V127.141H146.536V94.2256H153.436L153.941 98.7959ZM168.531 105.827V106.289C168.531 108.017 168.333 109.621 167.938 111.101C167.542 112.58 166.956 113.869 166.18 114.968C165.403 116.066 164.437 116.923 163.279 117.539C162.137 118.139 160.811 118.439 159.302 118.439C157.881 118.439 156.658 118.125 155.633 117.495C154.607 116.865 153.75 115.993 153.062 114.88C152.374 113.767 151.817 112.492 151.392 111.057C150.967 109.621 150.63 108.105 150.381 106.508V105.915C150.63 104.201 150.967 102.612 151.392 101.147C151.817 99.6675 152.374 98.3784 153.062 97.2798C153.75 96.1812 154.6 95.3242 155.611 94.709C156.636 94.0938 157.859 93.7861 159.28 93.7861C160.789 93.7861 162.115 94.0718 163.257 94.6431C164.415 95.2144 165.381 96.0347 166.158 97.104C166.949 98.1587 167.542 99.4258 167.938 100.905C168.333 102.385 168.531 104.025 168.531 105.827ZM161.126 106.289V105.827C161.126 104.904 161.06 104.062 160.928 103.3C160.796 102.524 160.584 101.85 160.291 101.279C160.013 100.708 159.639 100.268 159.17 99.9604C158.702 99.6528 158.123 99.499 157.435 99.499C156.644 99.499 155.977 99.6235 155.435 99.8726C154.908 100.107 154.483 100.473 154.161 100.971C153.853 101.455 153.633 102.062 153.501 102.795C153.384 103.513 153.333 104.355 153.348 105.322V107.124C153.318 108.237 153.428 109.218 153.677 110.068C153.926 110.903 154.358 111.555 154.974 112.023C155.589 112.492 156.424 112.727 157.479 112.727C158.182 112.727 158.768 112.565 159.236 112.243C159.705 111.906 160.079 111.445 160.357 110.859C160.635 110.258 160.833 109.57 160.95 108.793C161.067 108.017 161.126 107.182 161.126 106.289ZM179.649 84.25V118H172.222V84.25H179.649ZM195.733 118.439C193.799 118.439 192.071 118.139 190.547 117.539C189.024 116.923 187.735 116.081 186.68 115.012C185.64 113.942 184.842 112.712 184.285 111.32C183.743 109.929 183.472 108.457 183.472 106.904V106.069C183.472 104.326 183.714 102.714 184.197 101.235C184.681 99.7407 185.398 98.437 186.351 97.3237C187.303 96.2104 188.497 95.3462 189.932 94.731C191.368 94.1011 193.038 93.7861 194.942 93.7861C196.626 93.7861 198.135 94.0571 199.468 94.5991C200.801 95.1411 201.929 95.9175 202.852 96.9282C203.79 97.939 204.5 99.1621 204.983 100.598C205.481 102.033 205.73 103.645 205.73 105.432V108.442H186.307V103.806H198.501V103.234C198.516 102.443 198.377 101.77 198.084 101.213C197.806 100.656 197.396 100.231 196.854 99.9385C196.312 99.6455 195.652 99.499 194.876 99.499C194.07 99.499 193.404 99.6748 192.876 100.026C192.364 100.378 191.961 100.861 191.668 101.477C191.39 102.077 191.192 102.773 191.075 103.564C190.958 104.355 190.899 105.19 190.899 106.069V106.904C190.899 107.783 191.016 108.581 191.25 109.299C191.5 110.017 191.851 110.632 192.305 111.145C192.774 111.643 193.331 112.031 193.975 112.309C194.634 112.587 195.381 112.727 196.216 112.727C197.227 112.727 198.223 112.536 199.205 112.155C200.186 111.774 201.028 111.145 201.731 110.266L205.093 114.265C204.61 114.953 203.921 115.62 203.028 116.264C202.149 116.909 201.094 117.436 199.864 117.846C198.633 118.242 197.256 118.439 195.733 118.439ZM216.211 99.2573V118H208.807V94.2256H215.75L216.211 99.2573ZM215.311 105.3L213.619 105.344C213.619 103.674 213.816 102.136 214.212 100.729C214.607 99.3232 215.193 98.1001 215.97 97.0601C216.746 96.02 217.698 95.2144 218.826 94.6431C219.969 94.0718 221.287 93.7861 222.781 93.7861C223.821 93.7861 224.766 93.9473 225.616 94.2695C226.465 94.5771 227.198 95.0679 227.813 95.7417C228.428 96.4009 228.897 97.2651 229.219 98.3345C229.556 99.3892 229.725 100.656 229.725 102.136V118H222.32V103.081C222.32 102.07 222.203 101.308 221.968 100.795C221.749 100.283 221.426 99.9385 221.001 99.7627C220.577 99.5869 220.057 99.499 219.441 99.499C218.797 99.499 218.218 99.6455 217.706 99.9385C217.193 100.231 216.753 100.642 216.387 101.169C216.036 101.682 215.765 102.29 215.574 102.993C215.398 103.696 215.311 104.465 215.311 105.3ZM228.89 105.3L226.824 105.344C226.824 103.674 227.007 102.136 227.374 100.729C227.754 99.3232 228.318 98.1001 229.065 97.0601C229.827 96.02 230.772 95.2144 231.9 94.6431C233.028 94.0718 234.339 93.7861 235.833 93.7861C236.917 93.7861 237.913 93.9473 238.821 94.2695C239.729 94.5918 240.513 95.1118 241.172 95.8296C241.832 96.5474 242.344 97.4995 242.71 98.686C243.077 99.8579 243.26 101.308 243.26 103.037V118H235.833V103.037C235.833 102.055 235.716 101.315 235.481 100.817C235.262 100.305 234.939 99.9604 234.515 99.7847C234.09 99.5942 233.584 99.499 232.999 99.499C232.295 99.499 231.688 99.6455 231.175 99.9385C230.662 100.231 230.23 100.642 229.878 101.169C229.542 101.682 229.292 102.29 229.131 102.993C228.97 103.696 228.89 104.465 228.89 105.3ZM259.014 118.439C257.081 118.439 255.352 118.139 253.829 117.539C252.305 116.923 251.016 116.081 249.961 115.012C248.921 113.942 248.123 112.712 247.566 111.32C247.024 109.929 246.753 108.457 246.753 106.904V106.069C246.753 104.326 246.995 102.714 247.479 101.235C247.962 99.7407 248.68 98.437 249.632 97.3237C250.584 96.2104 251.778 95.3462 253.213 94.731C254.649 94.1011 256.319 93.7861 258.223 93.7861C259.908 93.7861 261.417 94.0571 262.75 94.5991C264.083 95.1411 265.21 95.9175 266.133 96.9282C267.071 97.939 267.781 99.1621 268.265 100.598C268.763 102.033 269.012 103.645 269.012 105.432V108.442H249.588V103.806H261.783V103.234C261.797 102.443 261.658 101.77 261.365 101.213C261.087 100.656 260.677 100.231 260.135 99.9385C259.593 99.6455 258.934 99.499 258.157 99.499C257.352 99.499 256.685 99.6748 256.158 100.026C255.645 100.378 255.242 100.861 254.949 101.477C254.671 102.077 254.473 102.773 254.356 103.564C254.239 104.355 254.18 105.19 254.18 106.069V106.904C254.18 107.783 254.297 108.581 254.532 109.299C254.781 110.017 255.132 110.632 255.586 111.145C256.055 111.643 256.612 112.031 257.256 112.309C257.916 112.587 258.663 112.727 259.498 112.727C260.508 112.727 261.504 112.536 262.486 112.155C263.467 111.774 264.31 111.145 265.013 110.266L268.375 114.265C267.891 114.953 267.203 115.62 266.309 116.264C265.43 116.909 264.375 117.436 263.145 117.846C261.915 118.242 260.538 118.439 259.014 118.439ZM279.295 99.3013V118H271.89V94.2256H278.833L279.295 99.3013ZM278.416 105.3L276.68 105.344C276.68 103.527 276.9 101.909 277.339 100.488C277.779 99.0522 278.401 97.8364 279.207 96.8403C280.013 95.8442 280.972 95.0898 282.085 94.5771C283.213 94.0498 284.466 93.7861 285.843 93.7861C286.941 93.7861 287.945 93.9473 288.853 94.2695C289.776 94.5918 290.567 95.1118 291.226 95.8296C291.9 96.5474 292.413 97.4995 292.764 98.686C293.13 99.8579 293.313 101.308 293.313 103.037V118H285.865V103.015C285.865 102.062 285.733 101.337 285.469 100.839C285.206 100.327 284.825 99.9751 284.327 99.7847C283.829 99.5942 283.221 99.499 282.503 99.499C281.741 99.499 281.097 99.6455 280.569 99.9385C280.042 100.231 279.617 100.642 279.295 101.169C278.987 101.682 278.76 102.29 278.614 102.993C278.482 103.696 278.416 104.465 278.416 105.3ZM309.947 94.2256V99.3672H295.621V94.2256H309.947ZM298.631 88.3149H306.036V110.244C306.036 110.874 306.109 111.364 306.255 111.716C306.402 112.053 306.651 112.294 307.002 112.441C307.369 112.573 307.852 112.639 308.453 112.639C308.877 112.639 309.229 112.631 309.507 112.617C309.786 112.587 310.049 112.551 310.298 112.507V117.802C309.668 118.007 309.009 118.161 308.321 118.264C307.632 118.381 306.9 118.439 306.124 118.439C304.542 118.439 303.187 118.19 302.059 117.692C300.945 117.194 300.096 116.411 299.51 115.341C298.924 114.272 298.631 112.88 298.631 111.167V88.3149ZM325.24 112.023V102.224C325.24 101.55 325.145 100.971 324.954 100.488C324.764 100.004 324.463 99.6309 324.053 99.3672C323.643 99.0889 323.094 98.9497 322.405 98.9497C321.849 98.9497 321.373 99.0449 320.977 99.2354C320.582 99.4258 320.281 99.7114 320.076 100.092C319.871 100.473 319.769 100.957 319.769 101.542H312.364C312.364 100.444 312.605 99.4258 313.089 98.4883C313.587 97.5361 314.29 96.7085 315.198 96.0054C316.121 95.3022 317.22 94.7603 318.494 94.3794C319.783 93.9839 321.219 93.7861 322.801 93.7861C324.69 93.7861 326.375 94.1011 327.854 94.731C329.349 95.3608 330.528 96.3057 331.392 97.5654C332.256 98.8105 332.688 100.378 332.688 102.268V112.001C332.688 113.554 332.776 114.733 332.952 115.539C333.128 116.33 333.377 117.026 333.699 117.626V118H326.272C325.921 117.268 325.657 116.374 325.481 115.319C325.32 114.25 325.24 113.151 325.24 112.023ZM326.141 103.476L326.185 107.431H322.911C322.222 107.431 321.636 107.526 321.153 107.717C320.684 107.907 320.303 108.171 320.01 108.508C319.732 108.83 319.527 109.196 319.395 109.606C319.278 110.017 319.219 110.449 319.219 110.903C319.219 111.342 319.322 111.738 319.527 112.089C319.747 112.426 320.04 112.69 320.406 112.88C320.772 113.071 321.182 113.166 321.636 113.166C322.457 113.166 323.152 113.012 323.724 112.705C324.31 112.382 324.756 111.994 325.064 111.54C325.372 111.086 325.525 110.661 325.525 110.266L327.151 113.298C326.858 113.884 326.521 114.477 326.141 115.078C325.774 115.678 325.313 116.235 324.756 116.748C324.214 117.246 323.548 117.656 322.757 117.978C321.966 118.286 321.006 118.439 319.878 118.439C318.414 118.439 317.066 118.139 315.835 117.539C314.62 116.938 313.646 116.103 312.913 115.034C312.181 113.95 311.814 112.705 311.814 111.298C311.814 110.068 312.034 108.969 312.474 108.002C312.928 107.036 313.609 106.215 314.517 105.542C315.425 104.868 316.583 104.355 317.989 104.003C319.395 103.652 321.05 103.476 322.955 103.476H326.141ZM349.322 94.2256V99.3672H334.996V94.2256H349.322ZM338.006 88.3149H345.411V110.244C345.411 110.874 345.484 111.364 345.63 111.716C345.777 112.053 346.026 112.294 346.377 112.441C346.744 112.573 347.227 112.639 347.828 112.639C348.252 112.639 348.604 112.631 348.882 112.617C349.161 112.587 349.424 112.551 349.673 112.507V117.802C349.043 118.007 348.384 118.161 347.696 118.264C347.007 118.381 346.275 118.439 345.499 118.439C343.917 118.439 342.562 118.19 341.434 117.692C340.32 117.194 339.471 116.411 338.885 115.341C338.299 114.272 338.006 112.88 338.006 111.167V88.3149ZM360.088 94.2256V118H352.662V94.2256H360.088ZM352.222 88.0952C352.222 87.0405 352.603 86.1763 353.365 85.5024C354.126 84.8286 355.115 84.4917 356.331 84.4917C357.547 84.4917 358.536 84.8286 359.297 85.5024C360.059 86.1763 360.44 87.0405 360.44 88.0952C360.44 89.1499 360.059 90.0142 359.297 90.688C358.536 91.3618 357.547 91.6987 356.331 91.6987C355.115 91.6987 354.126 91.3618 353.365 90.688C352.603 90.0142 352.222 89.1499 352.222 88.0952ZM363.736 106.354V105.893C363.736 104.15 363.985 102.546 364.483 101.081C364.981 99.6016 365.713 98.3198 366.68 97.2358C367.647 96.1519 368.841 95.3096 370.262 94.709C371.683 94.0938 373.323 93.7861 375.184 93.7861C377.059 93.7861 378.707 94.0938 380.127 94.709C381.563 95.3096 382.764 96.1519 383.731 97.2358C384.698 98.3198 385.43 99.6016 385.928 101.081C386.426 102.546 386.675 104.15 386.675 105.893V106.354C386.675 108.083 386.426 109.687 385.928 111.167C385.43 112.631 384.698 113.913 383.731 115.012C382.764 116.096 381.57 116.938 380.149 117.539C378.729 118.139 377.088 118.439 375.228 118.439C373.367 118.439 371.719 118.139 370.284 117.539C368.848 116.938 367.647 116.096 366.68 115.012C365.713 113.913 364.981 112.631 364.483 111.167C363.985 109.687 363.736 108.083 363.736 106.354ZM371.141 105.893V106.354C371.141 107.248 371.207 108.083 371.338 108.859C371.47 109.636 371.69 110.317 371.998 110.903C372.305 111.474 372.723 111.921 373.25 112.243C373.777 112.565 374.437 112.727 375.228 112.727C376.004 112.727 376.648 112.565 377.161 112.243C377.688 111.921 378.106 111.474 378.414 110.903C378.721 110.317 378.941 109.636 379.073 108.859C379.205 108.083 379.271 107.248 379.271 106.354V105.893C379.271 105.029 379.205 104.216 379.073 103.454C378.941 102.678 378.721 101.997 378.414 101.411C378.106 100.81 377.688 100.341 377.161 100.004C376.634 99.6675 375.975 99.499 375.184 99.499C374.407 99.499 373.755 99.6675 373.228 100.004C372.715 100.341 372.305 100.81 371.998 101.411C371.69 101.997 371.47 102.678 371.338 103.454C371.207 104.216 371.141 105.029 371.141 105.893ZM397.244 99.3013V118H389.839V94.2256H396.783L397.244 99.3013ZM396.365 105.3L394.629 105.344C394.629 103.527 394.849 101.909 395.289 100.488C395.728 99.0522 396.351 97.8364 397.156 96.8403C397.962 95.8442 398.921 95.0898 400.035 94.5771C401.163 94.0498 402.415 93.7861 403.792 93.7861C404.891 93.7861 405.894 93.9473 406.802 94.2695C407.725 94.5918 408.516 95.1118 409.175 95.8296C409.849 96.5474 410.362 97.4995 410.713 98.686C411.08 99.8579 411.263 101.308 411.263 103.037V118H403.814V103.015C403.814 102.062 403.682 101.337 403.418 100.839C403.155 100.327 402.774 99.9751 402.276 99.7847C401.778 99.5942 401.17 99.499 400.452 99.499C399.69 99.499 399.046 99.6455 398.519 99.9385C397.991 100.231 397.566 100.642 397.244 101.169C396.937 101.682 396.709 102.29 396.563 102.993C396.431 103.696 396.365 104.465 396.365 105.3Z" fill="#424241"/>
<path d="M1363 15C1363 6.71573 1356.28 0 1348 0H1134V167H1348C1356.28 167 1363 160.284 1363 152V15Z" fill="#1E2968"/>
<path d="M1281.5 49H1216.5L1214 51.5V116.5L1216.5 119H1281.5L1284 116.5V51.5L1281.5 49ZM1279 114H1234V104H1245.5C1247 107 1250.5 109 1254 109C1259.5 109 1264 104.5 1264 99C1264 93.5 1259.5 89 1254 89C1248.5 89 1244 93.5 1244 99H1229V114H1219V54H1229V65.5C1226 67 1224 70.5 1224 74C1224 79.5 1228.5 84 1234 84C1239.5 84 1244 79.5 1244 74H1254C1254 79.5 1258.5 84 1264 84C1269.5 84 1274 79.5 1274 74C1274 68.5 1269.5 64 1264 64C1260.5 64 1257 66 1255.5 69H1242.5C1241 66 1237.5 64 1234 64V54H1279V114ZM1249 99C1249 96 1251 94 1254 94C1257 94 1259 96 1259 99C1259 102 1257 104 1254 104C1251 104 1249 102 1249 99ZM1234 69C1237 69 1239 71 1239 74C1239 77 1237 79 1234 79C1231 79 1229 77 1229 74C1229 71 1231 69 1234 69ZM1264 69C1267 69 1269 71 1269 74C1269 77 1267 79 1264 79C1261 79 1259 77 1259 74C1259 71 1261 69 1264 69Z" fill="white"/>
</svg>
