<svg width="1363" height="167" viewBox="0 0 1363 167" fill="none" xmlns="http://www.w3.org/2000/svg">
<rect width="1363" height="167" rx="15" fill="#F0F0F0"/>
<path d="M0 15C0 6.71573 6.71573 0 15 0H37V167H15C6.71573 167 0 160.284 0 152V15Z" fill="#424241"/>
<path d="M99.6758 54.4375L103.695 40.9375H107.609L101.668 58H99.0898L99.6758 54.4375ZM95.9727 40.9375L99.9805 54.4375L100.59 58H97.9883L92.082 40.9375H95.9727ZM107.914 51.7891V51.543C107.914 50.6133 108.047 49.7578 108.312 48.9766C108.578 48.1875 108.965 47.5039 109.473 46.9258C109.98 46.3477 110.605 45.8984 111.348 45.5781C112.09 45.25 112.941 45.0859 113.902 45.0859C114.863 45.0859 115.719 45.25 116.469 45.5781C117.219 45.8984 117.848 46.3477 118.355 46.9258C118.871 47.5039 119.262 48.1875 119.527 48.9766C119.793 49.7578 119.926 50.6133 119.926 51.543V51.7891C119.926 52.7109 119.793 53.5664 119.527 54.3555C119.262 55.1367 118.871 55.8203 118.355 56.4062C117.848 56.9844 117.223 57.4336 116.48 57.7539C115.738 58.0742 114.887 58.2344 113.926 58.2344C112.965 58.2344 112.109 58.0742 111.359 57.7539C110.617 57.4336 109.988 56.9844 109.473 56.4062C108.965 55.8203 108.578 55.1367 108.312 54.3555C108.047 53.5664 107.914 52.7109 107.914 51.7891ZM111.289 51.543V51.7891C111.289 52.3203 111.336 52.8164 111.43 53.2773C111.523 53.7383 111.672 54.1445 111.875 54.4961C112.086 54.8398 112.359 55.1094 112.695 55.3047C113.031 55.5 113.441 55.5977 113.926 55.5977C114.395 55.5977 114.797 55.5 115.133 55.3047C115.469 55.1094 115.738 54.8398 115.941 54.4961C116.145 54.1445 116.293 53.7383 116.387 53.2773C116.488 52.8164 116.539 52.3203 116.539 51.7891V51.543C116.539 51.0273 116.488 50.543 116.387 50.0898C116.293 49.6289 116.141 49.2227 115.93 48.8711C115.727 48.5117 115.457 48.2305 115.121 48.0273C114.785 47.8242 114.379 47.7227 113.902 47.7227C113.426 47.7227 113.02 47.8242 112.684 48.0273C112.355 48.2305 112.086 48.5117 111.875 48.8711C111.672 49.2227 111.523 49.6289 111.43 50.0898C111.336 50.543 111.289 51.0273 111.289 51.543ZM128.211 45.3203V47.7109H120.828V45.3203H128.211ZM122.656 42.1914H126.031V54.1797C126.031 54.5469 126.078 54.8281 126.172 55.0234C126.273 55.2188 126.422 55.3555 126.617 55.4336C126.812 55.5039 127.059 55.5391 127.355 55.5391C127.566 55.5391 127.754 55.5312 127.918 55.5156C128.09 55.4922 128.234 55.4688 128.352 55.4453L128.363 57.9297C128.074 58.0234 127.762 58.0977 127.426 58.1523C127.09 58.207 126.719 58.2344 126.312 58.2344C125.57 58.2344 124.922 58.1133 124.367 57.8711C123.82 57.6211 123.398 57.2227 123.102 56.6758C122.805 56.1289 122.656 55.4102 122.656 54.5195V42.1914ZM135.969 58.2344C134.984 58.2344 134.102 58.0781 133.32 57.7656C132.539 57.4453 131.875 57.0039 131.328 56.4414C130.789 55.8789 130.375 55.2266 130.086 54.4844C129.797 53.7344 129.652 52.9375 129.652 52.0938V51.625C129.652 50.6641 129.789 49.7852 130.062 48.9883C130.336 48.1914 130.727 47.5 131.234 46.9141C131.75 46.3281 132.375 45.8789 133.109 45.5664C133.844 45.2461 134.672 45.0859 135.594 45.0859C136.492 45.0859 137.289 45.2344 137.984 45.5312C138.68 45.8281 139.262 46.25 139.73 46.7969C140.207 47.3438 140.566 48 140.809 48.7656C141.051 49.5234 141.172 50.3672 141.172 51.2969V52.7031H131.094V50.4531H137.855V50.1953C137.855 49.7266 137.77 49.3086 137.598 48.9414C137.434 48.5664 137.184 48.2695 136.848 48.0508C136.512 47.832 136.082 47.7227 135.559 47.7227C135.113 47.7227 134.73 47.8203 134.41 48.0156C134.09 48.2109 133.828 48.4844 133.625 48.8359C133.43 49.1875 133.281 49.6016 133.18 50.0781C133.086 50.5469 133.039 51.0625 133.039 51.625V52.0938C133.039 52.6016 133.109 53.0703 133.25 53.5C133.398 53.9297 133.605 54.3008 133.871 54.6133C134.145 54.9258 134.473 55.168 134.855 55.3398C135.246 55.5117 135.688 55.5977 136.18 55.5977C136.789 55.5977 137.355 55.4805 137.879 55.2461C138.41 55.0039 138.867 54.6406 139.25 54.1562L140.891 55.9375C140.625 56.3203 140.262 56.6875 139.801 57.0391C139.348 57.3906 138.801 57.6797 138.16 57.9062C137.52 58.125 136.789 58.2344 135.969 58.2344ZM159.172 52.3398H162.676C162.605 53.4883 162.289 54.5078 161.727 55.3984C161.172 56.2891 160.395 56.9844 159.395 57.4844C158.402 57.9844 157.207 58.2344 155.809 58.2344C154.715 58.2344 153.734 58.0469 152.867 57.6719C152 57.2891 151.258 56.7422 150.641 56.0312C150.031 55.3203 149.566 54.4609 149.246 53.4531C148.926 52.4453 148.766 51.3164 148.766 50.0664V48.8828C148.766 47.6328 148.93 46.5039 149.258 45.4961C149.594 44.4805 150.07 43.6172 150.688 42.9062C151.312 42.1953 152.059 41.6484 152.926 41.2656C153.793 40.8828 154.762 40.6914 155.832 40.6914C157.254 40.6914 158.453 40.9492 159.43 41.4648C160.414 41.9805 161.176 42.6914 161.715 43.5977C162.262 44.5039 162.59 45.5352 162.699 46.6914H159.184C159.145 46.0039 159.008 45.4219 158.773 44.9453C158.539 44.4609 158.184 44.0977 157.707 43.8555C157.238 43.6055 156.613 43.4805 155.832 43.4805C155.246 43.4805 154.734 43.5898 154.297 43.8086C153.859 44.0273 153.492 44.3594 153.195 44.8047C152.898 45.25 152.676 45.8125 152.527 46.4922C152.387 47.1641 152.316 47.9531 152.316 48.8594V50.0664C152.316 50.9492 152.383 51.7266 152.516 52.3984C152.648 53.0625 152.852 53.625 153.125 54.0859C153.406 54.5391 153.766 54.8828 154.203 55.1172C154.648 55.3438 155.184 55.457 155.809 55.457C156.543 55.457 157.148 55.3398 157.625 55.1055C158.102 54.8711 158.465 54.5234 158.715 54.0625C158.973 53.6016 159.125 53.0273 159.172 52.3398ZM168.066 40V58H164.691V40H168.066ZM167.586 51.2148H166.66C166.668 50.332 166.785 49.5195 167.012 48.7773C167.238 48.0273 167.562 47.3789 167.984 46.832C168.406 46.2773 168.91 45.8477 169.496 45.543C170.09 45.2383 170.746 45.0859 171.465 45.0859C172.09 45.0859 172.656 45.1758 173.164 45.3555C173.68 45.5273 174.121 45.8086 174.488 46.1992C174.863 46.582 175.152 47.0859 175.355 47.7109C175.559 48.3359 175.66 49.0938 175.66 49.9844V58H172.262V49.9609C172.262 49.3984 172.18 48.957 172.016 48.6367C171.859 48.3086 171.629 48.0781 171.324 47.9453C171.027 47.8047 170.66 47.7344 170.223 47.7344C169.738 47.7344 169.324 47.8242 168.98 48.0039C168.645 48.1836 168.375 48.4336 168.172 48.7539C167.969 49.0664 167.82 49.4336 167.727 49.8555C167.633 50.2773 167.586 50.7305 167.586 51.2148ZM185.07 55.1406V49.4922C185.07 49.0859 185.004 48.7383 184.871 48.4492C184.738 48.1523 184.531 47.9219 184.25 47.7578C183.977 47.5938 183.621 47.5117 183.184 47.5117C182.809 47.5117 182.484 47.5781 182.211 47.7109C181.938 47.8359 181.727 48.0195 181.578 48.2617C181.43 48.4961 181.355 48.7734 181.355 49.0938H177.98C177.98 48.5547 178.105 48.043 178.355 47.5586C178.605 47.0742 178.969 46.6484 179.445 46.2812C179.922 45.9062 180.488 45.6133 181.145 45.4023C181.809 45.1914 182.551 45.0859 183.371 45.0859C184.355 45.0859 185.23 45.25 185.996 45.5781C186.762 45.9062 187.363 46.3984 187.801 47.0547C188.246 47.7109 188.469 48.5312 188.469 49.5156V54.9414C188.469 55.6367 188.512 56.207 188.598 56.6523C188.684 57.0898 188.809 57.4727 188.973 57.8008V58H185.562C185.398 57.6562 185.273 57.2266 185.188 56.7109C185.109 56.1875 185.07 55.6641 185.07 55.1406ZM185.516 50.2773L185.539 52.1875H183.652C183.207 52.1875 182.82 52.2383 182.492 52.3398C182.164 52.4414 181.895 52.5859 181.684 52.7734C181.473 52.9531 181.316 53.1641 181.215 53.4062C181.121 53.6484 181.074 53.9141 181.074 54.2031C181.074 54.4922 181.141 54.7539 181.273 54.9883C181.406 55.2148 181.598 55.3945 181.848 55.5273C182.098 55.6523 182.391 55.7148 182.727 55.7148C183.234 55.7148 183.676 55.6133 184.051 55.4102C184.426 55.207 184.715 54.957 184.918 54.6602C185.129 54.3633 185.238 54.082 185.246 53.8164L186.137 55.2461C186.012 55.5664 185.84 55.8984 185.621 56.2422C185.41 56.5859 185.141 56.9102 184.812 57.2148C184.484 57.5117 184.09 57.7578 183.629 57.9531C183.168 58.1406 182.621 58.2344 181.988 58.2344C181.184 58.2344 180.453 58.0742 179.797 57.7539C179.148 57.4258 178.633 56.9766 178.25 56.4062C177.875 55.8281 177.688 55.1719 177.688 54.4375C177.688 53.7734 177.812 53.1836 178.062 52.668C178.312 52.1523 178.68 51.7188 179.164 51.3672C179.656 51.0078 180.27 50.7383 181.004 50.5586C181.738 50.3711 182.59 50.2773 183.559 50.2773H185.516ZM194.633 45.3203V58H191.246V45.3203H194.633ZM191.035 42.0156C191.035 41.5234 191.207 41.1172 191.551 40.7969C191.895 40.4766 192.355 40.3164 192.934 40.3164C193.504 40.3164 193.961 40.4766 194.305 40.7969C194.656 41.1172 194.832 41.5234 194.832 42.0156C194.832 42.5078 194.656 42.9141 194.305 43.2344C193.961 43.5547 193.504 43.7148 192.934 43.7148C192.355 43.7148 191.895 43.5547 191.551 43.2344C191.207 42.9141 191.035 42.5078 191.035 42.0156ZM200.727 48.0273V58H197.352V45.3203H200.516L200.727 48.0273ZM200.234 51.2148H199.32C199.32 50.2773 199.441 49.4336 199.684 48.6836C199.926 47.9258 200.266 47.2812 200.703 46.75C201.141 46.2109 201.66 45.8008 202.262 45.5195C202.871 45.2305 203.551 45.0859 204.301 45.0859C204.895 45.0859 205.438 45.1719 205.93 45.3438C206.422 45.5156 206.844 45.7891 207.195 46.1641C207.555 46.5391 207.828 47.0352 208.016 47.6523C208.211 48.2695 208.309 49.0234 208.309 49.9141V58H204.91V49.9023C204.91 49.3398 204.832 48.9023 204.676 48.5898C204.52 48.2773 204.289 48.0586 203.984 47.9336C203.688 47.8008 203.32 47.7344 202.883 47.7344C202.43 47.7344 202.035 47.8242 201.699 48.0039C201.371 48.1836 201.098 48.4336 200.879 48.7539C200.668 49.0664 200.508 49.4336 200.398 49.8555C200.289 50.2773 200.234 50.7305 200.234 51.2148Z" fill="#888888"/>
<path d="M109.93 86.0078V118H102.217V86.0078H109.93ZM119.554 86.0078V91.9624H92.813V86.0078H119.554ZM132.012 118.439C130.079 118.439 128.35 118.139 126.827 117.539C125.303 116.923 124.014 116.081 122.959 115.012C121.919 113.942 121.121 112.712 120.564 111.32C120.022 109.929 119.751 108.457 119.751 106.904V106.069C119.751 104.326 119.993 102.714 120.477 101.235C120.96 99.7407 121.678 98.437 122.63 97.3237C123.582 96.2104 124.776 95.3462 126.211 94.731C127.647 94.1011 129.317 93.7861 131.221 93.7861C132.906 93.7861 134.415 94.0571 135.748 94.5991C137.081 95.1411 138.208 95.9175 139.131 96.9282C140.069 97.939 140.779 99.1621 141.263 100.598C141.761 102.033 142.01 103.645 142.01 105.432V108.442H122.586V103.806H134.781V103.234C134.795 102.443 134.656 101.77 134.363 101.213C134.085 100.656 133.675 100.231 133.133 99.9385C132.591 99.6455 131.932 99.499 131.155 99.499C130.35 99.499 129.683 99.6748 129.156 100.026C128.643 100.378 128.24 100.861 127.947 101.477C127.669 102.077 127.471 102.773 127.354 103.564C127.237 104.355 127.178 105.19 127.178 106.069V106.904C127.178 107.783 127.295 108.581 127.53 109.299C127.779 110.017 128.13 110.632 128.584 111.145C129.053 111.643 129.61 112.031 130.254 112.309C130.914 112.587 131.661 112.727 132.496 112.727C133.506 112.727 134.502 112.536 135.484 112.155C136.465 111.774 137.308 111.145 138.011 110.266L141.373 114.265C140.889 114.953 140.201 115.62 139.307 116.264C138.428 116.909 137.374 117.436 136.143 117.846C134.913 118.242 133.536 118.439 132.012 118.439ZM155.062 112.727C155.75 112.727 156.336 112.602 156.819 112.353C157.317 112.089 157.691 111.723 157.94 111.254C158.204 110.771 158.328 110.192 158.313 109.519H165.279C165.293 111.306 164.854 112.873 163.96 114.221C163.082 115.554 161.88 116.594 160.357 117.341C158.848 118.073 157.142 118.439 155.237 118.439C153.377 118.439 151.751 118.139 150.359 117.539C148.968 116.923 147.803 116.074 146.866 114.99C145.943 113.891 145.247 112.609 144.778 111.145C144.324 109.68 144.097 108.09 144.097 106.376V105.871C144.097 104.157 144.324 102.568 144.778 101.103C145.247 99.6235 145.943 98.3418 146.866 97.2578C147.803 96.1592 148.96 95.3096 150.337 94.709C151.729 94.0938 153.348 93.7861 155.193 93.7861C157.171 93.7861 158.914 94.1597 160.423 94.9067C161.946 95.6538 163.14 96.7378 164.004 98.1587C164.869 99.5796 165.293 101.301 165.279 103.322H158.313C158.328 102.604 158.218 101.96 157.984 101.389C157.75 100.817 157.383 100.363 156.885 100.026C156.402 99.6748 155.779 99.499 155.018 99.499C154.256 99.499 153.641 99.6675 153.172 100.004C152.703 100.341 152.344 100.81 152.095 101.411C151.861 101.997 151.7 102.67 151.612 103.432C151.539 104.194 151.502 105.007 151.502 105.871V106.376C151.502 107.255 151.539 108.083 151.612 108.859C151.7 109.621 151.868 110.295 152.117 110.881C152.366 111.452 152.725 111.906 153.194 112.243C153.663 112.565 154.285 112.727 155.062 112.727ZM175.694 84.25V118H168.289V84.25H175.694ZM174.815 105.3L173.079 105.344C173.079 103.674 173.284 102.136 173.694 100.729C174.104 99.3232 174.69 98.1001 175.452 97.0601C176.214 96.02 177.129 95.2144 178.199 94.6431C179.268 94.0718 180.455 93.7861 181.758 93.7861C182.93 93.7861 184 93.9546 184.966 94.2915C185.948 94.6284 186.79 95.1704 187.493 95.9175C188.211 96.6646 188.76 97.6387 189.141 98.8398C189.537 100.041 189.734 101.506 189.734 103.234V118H182.286V103.19C182.286 102.224 182.146 101.477 181.868 100.949C181.604 100.407 181.224 100.034 180.726 99.8286C180.228 99.6089 179.62 99.499 178.902 99.499C178.038 99.499 177.334 99.6455 176.792 99.9385C176.25 100.231 175.833 100.642 175.54 101.169C175.262 101.682 175.071 102.29 174.969 102.993C174.866 103.696 174.815 104.465 174.815 105.3ZM221.88 109.497C221.88 108.999 221.807 108.552 221.661 108.156C221.514 107.746 221.243 107.365 220.848 107.014C220.452 106.662 219.881 106.311 219.134 105.959C218.401 105.593 217.435 105.212 216.233 104.816C214.827 104.348 213.472 103.82 212.168 103.234C210.865 102.634 209.7 101.938 208.675 101.147C207.649 100.341 206.836 99.4038 206.236 98.3345C205.635 97.2505 205.335 95.9907 205.335 94.5552C205.335 93.1782 205.643 91.9404 206.258 90.8418C206.873 89.7285 207.73 88.7837 208.829 88.0073C209.942 87.2163 211.246 86.6157 212.74 86.2056C214.234 85.7808 215.867 85.5684 217.64 85.5684C219.983 85.5684 222.049 85.9785 223.836 86.7988C225.638 87.6045 227.044 88.7544 228.055 90.2485C229.08 91.728 229.593 93.4785 229.593 95.5H221.924C221.924 94.6943 221.756 93.9839 221.419 93.3687C221.097 92.7534 220.606 92.27 219.947 91.9185C219.288 91.5669 218.46 91.3911 217.464 91.3911C216.497 91.3911 215.684 91.5376 215.025 91.8306C214.366 92.1235 213.868 92.519 213.531 93.0171C213.194 93.5005 213.025 94.0352 213.025 94.6211C213.025 95.1045 213.157 95.5439 213.421 95.9395C213.699 96.3203 214.087 96.6792 214.585 97.0161C215.098 97.353 215.713 97.6753 216.431 97.9829C217.164 98.2905 217.984 98.5908 218.892 98.8838C220.591 99.4258 222.1 100.034 223.418 100.708C224.751 101.367 225.872 102.121 226.78 102.971C227.703 103.806 228.399 104.758 228.868 105.827C229.351 106.896 229.593 108.105 229.593 109.453C229.593 110.888 229.314 112.163 228.758 113.276C228.201 114.389 227.403 115.334 226.363 116.11C225.323 116.872 224.078 117.451 222.627 117.846C221.177 118.242 219.559 118.439 217.771 118.439C216.131 118.439 214.512 118.234 212.916 117.824C211.333 117.399 209.898 116.755 208.609 115.891C207.32 115.012 206.287 113.891 205.511 112.529C204.749 111.152 204.368 109.519 204.368 107.629H212.103C212.103 108.566 212.227 109.357 212.476 110.002C212.725 110.646 213.091 111.167 213.575 111.562C214.058 111.943 214.651 112.221 215.354 112.397C216.058 112.558 216.863 112.639 217.771 112.639C218.753 112.639 219.544 112.5 220.145 112.221C220.745 111.928 221.185 111.547 221.463 111.079C221.741 110.595 221.88 110.068 221.88 109.497ZM245.743 94.2256V99.3672H231.417V94.2256H245.743ZM234.427 88.3149H241.832V110.244C241.832 110.874 241.905 111.364 242.051 111.716C242.198 112.053 242.447 112.294 242.798 112.441C243.165 112.573 243.648 112.639 244.249 112.639C244.673 112.639 245.025 112.631 245.303 112.617C245.582 112.587 245.845 112.551 246.094 112.507V117.802C245.464 118.007 244.805 118.161 244.117 118.264C243.428 118.381 242.696 118.439 241.919 118.439C240.337 118.439 238.982 118.19 237.854 117.692C236.741 117.194 235.892 116.411 235.306 115.341C234.72 114.272 234.427 112.88 234.427 111.167V88.3149ZM261.036 112.023V102.224C261.036 101.55 260.94 100.971 260.75 100.488C260.56 100.004 260.259 99.6309 259.849 99.3672C259.439 99.0889 258.89 98.9497 258.201 98.9497C257.645 98.9497 257.168 99.0449 256.773 99.2354C256.377 99.4258 256.077 99.7114 255.872 100.092C255.667 100.473 255.564 100.957 255.564 101.542H248.16C248.16 100.444 248.401 99.4258 248.885 98.4883C249.383 97.5361 250.086 96.7085 250.994 96.0054C251.917 95.3022 253.016 94.7603 254.29 94.3794C255.579 93.9839 257.015 93.7861 258.597 93.7861C260.486 93.7861 262.171 94.1011 263.65 94.731C265.145 95.3608 266.324 96.3057 267.188 97.5654C268.052 98.8105 268.484 100.378 268.484 102.268V112.001C268.484 113.554 268.572 114.733 268.748 115.539C268.924 116.33 269.173 117.026 269.495 117.626V118H262.068C261.717 117.268 261.453 116.374 261.277 115.319C261.116 114.25 261.036 113.151 261.036 112.023ZM261.937 103.476L261.98 107.431H258.707C258.018 107.431 257.432 107.526 256.949 107.717C256.48 107.907 256.099 108.171 255.806 108.508C255.528 108.83 255.323 109.196 255.191 109.606C255.074 110.017 255.015 110.449 255.015 110.903C255.015 111.342 255.118 111.738 255.323 112.089C255.542 112.426 255.835 112.69 256.202 112.88C256.568 113.071 256.978 113.166 257.432 113.166C258.252 113.166 258.948 113.012 259.52 112.705C260.105 112.382 260.552 111.994 260.86 111.54C261.167 111.086 261.321 110.661 261.321 110.266L262.947 113.298C262.654 113.884 262.317 114.477 261.937 115.078C261.57 115.678 261.109 116.235 260.552 116.748C260.01 117.246 259.344 117.656 258.553 117.978C257.762 118.286 256.802 118.439 255.674 118.439C254.209 118.439 252.862 118.139 251.631 117.539C250.416 116.938 249.441 116.103 248.709 115.034C247.977 113.95 247.61 112.705 247.61 111.298C247.61 110.068 247.83 108.969 248.27 108.002C248.724 107.036 249.405 106.215 250.313 105.542C251.221 104.868 252.378 104.355 253.785 104.003C255.191 103.652 256.846 103.476 258.75 103.476H261.937ZM282.635 112.727C283.323 112.727 283.909 112.602 284.393 112.353C284.891 112.089 285.264 111.723 285.513 111.254C285.777 110.771 285.901 110.192 285.887 109.519H292.852C292.867 111.306 292.427 112.873 291.534 114.221C290.655 115.554 289.454 116.594 287.93 117.341C286.421 118.073 284.715 118.439 282.811 118.439C280.95 118.439 279.324 118.139 277.933 117.539C276.541 116.923 275.376 116.074 274.439 114.99C273.516 113.891 272.82 112.609 272.352 111.145C271.897 109.68 271.67 108.09 271.67 106.376V105.871C271.67 104.157 271.897 102.568 272.352 101.103C272.82 99.6235 273.516 98.3418 274.439 97.2578C275.376 96.1592 276.534 95.3096 277.911 94.709C279.302 94.0938 280.921 93.7861 282.767 93.7861C284.744 93.7861 286.487 94.1597 287.996 94.9067C289.52 95.6538 290.713 96.7378 291.578 98.1587C292.442 99.5796 292.867 101.301 292.852 103.322H285.887C285.901 102.604 285.792 101.96 285.557 101.389C285.323 100.817 284.957 100.363 284.458 100.026C283.975 99.6748 283.353 99.499 282.591 99.499C281.829 99.499 281.214 99.6675 280.745 100.004C280.276 100.341 279.917 100.81 279.668 101.411C279.434 101.997 279.273 102.67 279.185 103.432C279.112 104.194 279.075 105.007 279.075 105.871V106.376C279.075 107.255 279.112 108.083 279.185 108.859C279.273 109.621 279.441 110.295 279.69 110.881C279.939 111.452 280.298 111.906 280.767 112.243C281.236 112.565 281.858 112.727 282.635 112.727ZM303.487 84.228V118H296.082V84.228H303.487ZM318.692 94.2256L308.365 106.333L302.959 111.738L299.729 107.036L304.234 101.169L309.815 94.2256H318.692ZM310.76 118L304.41 107.167L309.881 103.278L319.241 118H310.76Z" fill="#424241"/>
<path d="M1363 15C1363 6.71573 1356.28 0 1348 0H1134V167H1348C1356.28 167 1363 160.284 1363 152V15Z" fill="#6B81FF"/>
<path fill-rule="evenodd" clip-rule="evenodd" d="M1218.5 55C1218.37 55 1218.24 55.0527 1218.15 55.1464C1218.05 55.2402 1218 55.3674 1218 55.5V111.5C1218 111.633 1218.05 111.76 1218.15 111.854C1218.24 111.947 1218.37 112 1218.5 112H1278C1278.13 112 1278.26 111.947 1278.35 111.854C1278.45 111.76 1278.5 111.633 1278.5 111.5V66C1278.5 65.8674 1278.45 65.7402 1278.35 65.6464C1278.26 65.5527 1278.13 65.5 1278 65.5H1248.25C1247.36 65.5 1246.52 65.1045 1245.95 64.4206L1238.09 55H1218.5ZM1213.9 50.9038C1215.12 49.6848 1216.78 49 1218.5 49H1239.5C1240.39 49 1241.23 49.3955 1241.8 50.0794L1249.66 59.5H1278C1279.72 59.5 1281.38 60.1848 1282.6 61.4038C1283.82 62.6228 1284.5 64.2761 1284.5 66V111.5C1284.5 113.224 1283.82 114.877 1282.6 116.096C1281.38 117.315 1279.72 118 1278 118H1218.5C1216.78 118 1215.12 117.315 1213.9 116.096C1212.68 114.877 1212 113.224 1212 111.5V55.5C1212 53.7761 1212.68 52.1228 1213.9 50.9038Z" fill="white"/>
<path fill-rule="evenodd" clip-rule="evenodd" d="M1243.72 77.5251C1245.09 78.892 1245.09 81.108 1243.72 82.4749L1237.45 88.75L1243.72 95.0251C1245.09 96.392 1245.09 98.608 1243.72 99.9749C1242.36 101.342 1240.14 101.342 1238.78 99.9749L1230.03 91.2249C1228.66 89.858 1228.66 87.642 1230.03 86.2751L1238.78 77.5251C1240.14 76.1583 1242.36 76.1583 1243.72 77.5251Z" fill="white"/>
<path fill-rule="evenodd" clip-rule="evenodd" d="M1252.03 99.9749C1250.66 98.608 1250.66 96.392 1252.03 95.0251L1258.3 88.75L1252.03 82.4749C1250.66 81.108 1250.66 78.892 1252.03 77.5251C1253.39 76.1583 1255.61 76.1583 1256.97 77.5251L1265.72 86.2751C1267.09 87.642 1267.09 89.858 1265.72 91.2249L1256.97 99.9749C1255.61 101.342 1253.39 101.342 1252.03 99.9749Z" fill="white"/>
</svg>
